<svg width="518" height="295" viewBox="0 0 518 295" fill="none" xmlns="http://www.w3.org/2000/svg">
<path d="M514.396 119.82C480.056 119.82 449.3 109.717 420.173 91.5361C400.858 79.4797 385.008 62.8923 365.614 50.8679C346.576 39.0646 325.795 32.8752 304.695 26.0987C278.3 17.6214 251.165 10.1591 223.693 6.18298C197.76 2.42948 172.178 2.33372 146.039 2.33372C121.948 2.33372 95.6439 1.26088 72.2333 8.02393C40.5415 17.1793 25.798 61.9448 15.917 89.6115C3.24287 125.099 -12.8816 187.018 28.2179 212.035C47.0915 223.523 67.8389 231.013 86.6262 242.494C106.739 254.785 127.299 266.143 148.382 276.803C171.246 288.363 190.997 293.037 216.497 293.037C244.563 293.037 270.28 284.132 295.156 271.196C310.795 263.064 325.236 255.393 341.849 249.021C354.453 244.186 366.354 239.087 379.505 235.8C392.469 232.559 406.313 230.993 418.75 225.926C436.965 218.505 443.782 202.115 458.666 191.366C469.201 183.757 482.765 173.296 482.765 159.317C482.765 143.081 502.241 128.157 515.902 121.326" stroke="black" stroke-width="3" stroke-linecap="round"/>
</svg>
