<svg width="6292" height="309" viewBox="0 0 6292 309" fill="none" xmlns="http://www.w3.org/2000/svg">
<path d="M424.121 119.33C415.286 119.33 404.289 120.458 401.26 109.855C399.03 102.051 394.342 94.3952 394.342 86.2046C394.342 81.148 393.976 75.9397 394.379 70.9016C394.935 63.9533 399.802 58.4159 405.02 54.3577C414.725 46.8092 432.214 45.3211 442.018 53.3425C446.168 56.7379 447.583 61.6145 450.892 65.5248C454.027 69.2305 455.253 73.9172 455.253 78.7223C455.253 84.0693 455.492 89.3598 454.576 94.627C453.697 99.6839 451.348 103.744 449.989 108.501C448.284 114.47 440.09 118.075 434.611 119.292C432.256 119.816 429.6 119.609 427.204 120.044C424.787 120.484 422.621 120.684 420.06 120.684" stroke="black" stroke-width="3" stroke-linecap="round"/>
<path d="M425.237 120.234C425.237 130.843 425.237 141.451 425.237 152.06C425.237 158.837 426.329 166.875 424.991 173.564C423.78 179.62 420.814 184.741 420.814 191.013C420.814 195.576 420.702 197.988 418.602 202.073C412.224 214.474 404.787 225.853 397.589 237.708C393.341 244.705 391.945 259.581 381 259.581" stroke="black" stroke-width="3" stroke-linecap="round"/>
<path d="M419.708 194.331C419.708 205.864 421.065 215.19 425.729 225.789C428.223 231.457 432.183 239.326 436.542 243.852C440.655 248.124 444.508 253.564 449.568 256.816C453.66 259.447 455.908 265.75 460.627 267.323" stroke="black" stroke-width="3" stroke-linecap="round"/>
<path d="M425.237 156.73C414.181 156.73 399.953 151.614 390.708 145.67C386.414 142.91 384.742 140.306 383.212 135.717" stroke="black" stroke-width="3" stroke-linecap="round"/>
<path d="M425.237 156.73C432.028 156.112 438.005 151.31 444.591 149.603C451.066 147.924 457.471 146.068 463.945 144.319C468.348 143.129 481.924 137.361 483.852 133.505" stroke="black" stroke-width="3" stroke-linecap="round"/>
<path d="M447.381 79.2934C443.487 79.2934 438.262 81.2724 437.391 85.5309C436.67 89.0558 435.564 94.9307 438.95 97.2751C444.449 101.082 454.483 99.9376 457.224 92.8893C458.666 89.1809 460.451 83.5059 458.564 79.732C456.212 75.0262 451.455 73.1533 446.528 73.1533C441.83 73.1533 438.341 73.3318 436.416 77.7584C434.276 82.6805 435.147 92.2447 439.048 95.9593C442.796 99.5293 447.322 93.974 450.11 92.0121C453.197 89.8395 454.741 85.4242 455.616 81.9249C456.882 76.8609 449.853 75.355 446.162 76.6619C444.625 77.2066 440.575 78.1631 440.363 80.1706C440.115 82.5355 440.696 84.1253 441.63 86.2619C443.262 89.9906 443.165 92.7301 447.99 91.9878C450.567 91.5913 450.36 85.4446 450.012 83.7035C449.04 78.8435 446.928 79.2934 442.337 79.2934C440.367 79.2934 443.025 83.6631 443.409 84.2639C444.341 85.7204 445.952 86.3305 447.381 87.1878" stroke="black" stroke-width="3" stroke-linecap="round"/>
<path d="M446.065 74.4691C446.065 65.1761 443.426 56.9114 439.267 48.593C437.746 45.5502 433.049 44.3857 429.838 44.2073C426.318 44.0117 422.586 43.3301 419.093 43.3301C416.839 43.3301 413.007 42.5261 410.979 43.4276C407.008 45.1925 401.965 46.6901 399.917 50.7859C398.751 53.118 398.26 54.6371 398.26 57.3646C398.26 59.6714 396.506 60.7477 396.506 63.0661" stroke="black" stroke-width="3" stroke-linecap="round"/>
<path d="M392.997 73.5918C391.064 74.0214 389.964 77.9755 389.927 79.6344C389.878 81.8723 389.895 84.0459 390.805 86.0913C391.6 87.8814 392.935 89.318 394.313 90.6963C394.969 91.3524 396.925 93.3278 395.629 93.3278C394.058 93.3278 392.503 93.0848 391.243 94.2049C390.276 95.0646 388.951 95.6191 387.954 94.3999C385.815 91.7861 385.209 86.9873 384.567 83.7765C384.106 81.4712 384.337 80.278 385.103 78.1725C386.921 73.1719 390.184 71.3989 395.19 71.3989C399.454 71.3989 393.069 82.5698 392.461 84.4588C391.813 86.4754 391.682 88.7446 391.682 90.8669C391.682 92.4847 392.219 93.8414 390.268 93.7664C386.434 93.6189 387.734 83.4424 387.734 80.609" stroke="black" stroke-width="3" stroke-linecap="round"/>
<path d="M394.313 76.2234C398.836 76.2234 402.712 77.2388 407.032 78.3188C407.768 78.503 411.513 78.9361 411.856 79.5371C413.385 82.213 412.867 89.9945 410.54 92.4507C407.566 95.5901 404.352 95.5208 400.234 95.5208C396.147 95.5208 397.32 88.9106 394.752 87.6264" stroke="black" stroke-width="3" stroke-linecap="round"/>
<path d="M411.417 79.2935C416.089 79.2935 420.873 79.732 425.452 79.732C428.875 79.732 432.324 81.0478 435.539 81.0478" stroke="black" stroke-width="3" stroke-linecap="round"/>
<path d="M418.873 80.6091C418.873 83.6792 418.873 86.7492 418.873 89.8192C418.873 90.8174 418.507 92.8387 418.971 93.7664C420.305 96.4345 422.267 97.984 425.111 98.9319C427.988 99.8911 431.097 99.6522 433.882 98.6882C436.678 97.7204 436.924 96.6976 438.171 94.205" stroke="black" stroke-width="3" stroke-linecap="round"/>
<path d="M426.727 138.374C434.883 138.374 444.855 139.609 449.812 147.044C453.266 152.225 453.043 159.897 453.043 165.87C453.043 174.598 441.015 177.985 434.576 180.619C431.912 181.709 428.948 183.158 426.06 183.158C424.242 183.158 422.902 182.697 421.187 182.697" stroke="black" stroke-width="3" stroke-linecap="round"/>
<path d="M424.269 140.071C421.419 142.921 420.428 147.124 419.658 150.973C418.993 154.298 419.148 158.361 419.105 161.752C419.074 164.238 419.105 166.726 419.105 169.212" stroke="black" stroke-width="3" stroke-linecap="round"/>
<path d="M429.16 140.207C429.16 142.214 428.855 144.208 428.847 146.217C428.834 149.442 428.536 152.86 429.428 156C430.225 158.805 431.299 161.526 432.555 164.156C433.01 165.109 433.426 166.12 434.032 166.992C434.12 167.12 434.564 167.903 434.706 167.62" stroke="black" stroke-width="3" stroke-linecap="round"/>
<path d="M2260.12 119.33C2251.29 119.33 2240.29 120.458 2237.26 109.855C2235.03 102.051 2230.34 94.3952 2230.34 86.2046C2230.34 81.148 2229.98 75.9397 2230.38 70.9016C2230.94 63.9533 2235.8 58.4159 2241.02 54.3577C2250.73 46.8092 2268.21 45.3211 2278.02 53.3425C2282.17 56.7379 2283.58 61.6145 2286.89 65.5248C2290.03 69.2305 2291.25 73.9172 2291.25 78.7223C2291.25 84.0693 2291.49 89.3598 2290.58 94.627C2289.7 99.6839 2287.35 103.744 2285.99 108.501C2284.28 114.47 2276.09 118.075 2270.61 119.292C2268.26 119.816 2265.6 119.609 2263.2 120.044C2260.79 120.484 2258.62 120.684 2256.06 120.684" stroke="black" stroke-width="3" stroke-linecap="round"/>
<path d="M2261.24 120.234C2261.24 130.843 2261.24 141.451 2261.24 152.06C2261.24 158.837 2262.33 166.875 2260.99 173.564C2259.78 179.62 2256.81 184.741 2256.81 191.013C2256.81 195.576 2256.7 197.988 2254.6 202.073C2248.22 214.474 2240.79 225.853 2233.59 237.708C2229.34 244.705 2227.94 259.581 2217 259.581" stroke="black" stroke-width="3" stroke-linecap="round"/>
<path d="M2255.71 194.331C2255.71 205.864 2257.07 215.19 2261.73 225.789C2264.22 231.457 2268.18 239.326 2272.54 243.852C2276.66 248.124 2280.51 253.564 2285.57 256.816C2289.66 259.447 2291.91 265.75 2296.63 267.323" stroke="black" stroke-width="3" stroke-linecap="round"/>
<path d="M2261.24 156.73C2250.18 156.73 2235.95 151.614 2226.71 145.67C2222.41 142.91 2220.74 140.306 2219.21 135.717" stroke="black" stroke-width="3" stroke-linecap="round"/>
<path d="M2261.24 156.73C2268.03 156.112 2274 151.31 2280.59 149.603C2287.07 147.924 2293.47 146.068 2299.94 144.319C2304.35 143.129 2317.92 137.361 2319.85 133.505" stroke="black" stroke-width="3" stroke-linecap="round"/>
<path d="M2283.38 79.2934C2279.49 79.2934 2274.26 81.2724 2273.39 85.5309C2272.67 89.0558 2271.56 94.9307 2274.95 97.2751C2280.45 101.082 2290.48 99.9376 2293.22 92.8893C2294.67 89.1809 2296.45 83.5059 2294.56 79.732C2292.21 75.0262 2287.45 73.1533 2282.53 73.1533C2277.83 73.1533 2274.34 73.3318 2272.42 77.7584C2270.28 82.6805 2271.15 92.2447 2275.05 95.9593C2278.8 99.5293 2283.32 93.974 2286.11 92.0121C2289.2 89.8395 2290.74 85.4242 2291.62 81.9249C2292.88 76.8609 2285.85 75.355 2282.16 76.6619C2280.62 77.2066 2276.57 78.1631 2276.36 80.1706C2276.11 82.5355 2276.7 84.1253 2277.63 86.2619C2279.26 89.9906 2279.16 92.7301 2283.99 91.9878C2286.57 91.5913 2286.36 85.4446 2286.01 83.7035C2285.04 78.8435 2282.93 79.2934 2278.34 79.2934C2276.37 79.2934 2279.02 83.6631 2279.41 84.2639C2280.34 85.7204 2281.95 86.3305 2283.38 87.1878" stroke="black" stroke-width="3" stroke-linecap="round"/>
<path d="M2282.07 74.4691C2282.07 65.1761 2279.43 56.9114 2275.27 48.593C2273.75 45.5502 2269.05 44.3857 2265.84 44.2073C2262.32 44.0117 2258.59 43.3301 2255.09 43.3301C2252.84 43.3301 2249.01 42.5261 2246.98 43.4276C2243.01 45.1925 2237.96 46.6901 2235.92 50.7859C2234.75 53.118 2234.26 54.6371 2234.26 57.3646C2234.26 59.6714 2232.51 60.7477 2232.51 63.0661" stroke="black" stroke-width="3" stroke-linecap="round"/>
<path d="M2229 73.5918C2227.06 74.0214 2225.96 77.9755 2225.93 79.6344C2225.88 81.8723 2225.9 84.0459 2226.8 86.0913C2227.6 87.8814 2228.93 89.318 2230.31 90.6963C2230.97 91.3524 2232.92 93.3278 2231.63 93.3278C2230.06 93.3278 2228.5 93.0848 2227.24 94.2049C2226.28 95.0646 2224.95 95.6191 2223.95 94.3999C2221.82 91.7861 2221.21 86.9873 2220.57 83.7765C2220.11 81.4712 2220.34 80.278 2221.1 78.1725C2222.92 73.1719 2226.18 71.3989 2231.19 71.3989C2235.45 71.3989 2229.07 82.5698 2228.46 84.4588C2227.81 86.4754 2227.68 88.7446 2227.68 90.8669C2227.68 92.4847 2228.22 93.8414 2226.27 93.7664C2222.43 93.6189 2223.73 83.4424 2223.73 80.609" stroke="black" stroke-width="3" stroke-linecap="round"/>
<path d="M2230.31 76.2234C2234.84 76.2234 2238.71 77.2388 2243.03 78.3188C2243.77 78.503 2247.51 78.9361 2247.86 79.5371C2249.39 82.213 2248.87 89.9945 2246.54 92.4507C2243.57 95.5901 2240.35 95.5208 2236.23 95.5208C2232.15 95.5208 2233.32 88.9106 2230.75 87.6264" stroke="black" stroke-width="3" stroke-linecap="round"/>
<path d="M2247.42 79.2935C2252.09 79.2935 2256.87 79.732 2261.45 79.732C2264.88 79.732 2268.32 81.0478 2271.54 81.0478" stroke="black" stroke-width="3" stroke-linecap="round"/>
<path d="M2254.87 80.6091C2254.87 83.6792 2254.87 86.7492 2254.87 89.8192C2254.87 90.8174 2254.51 92.8387 2254.97 93.7664C2256.3 96.4345 2258.27 97.984 2261.11 98.9319C2263.99 99.8911 2267.1 99.6522 2269.88 98.6882C2272.68 97.7204 2272.92 96.6976 2274.17 94.205" stroke="black" stroke-width="3" stroke-linecap="round"/>
<path d="M2262.73 138.374C2270.88 138.374 2280.85 139.609 2285.81 147.044C2289.27 152.225 2289.04 159.897 2289.04 165.87C2289.04 174.598 2277.01 177.985 2270.58 180.619C2267.91 181.709 2264.95 183.158 2262.06 183.158C2260.24 183.158 2258.9 182.697 2257.19 182.697" stroke="black" stroke-width="3" stroke-linecap="round"/>
<path d="M2260.27 140.071C2257.42 142.921 2256.43 147.124 2255.66 150.973C2254.99 154.298 2255.15 158.361 2255.11 161.752C2255.07 164.238 2255.11 166.726 2255.11 169.212" stroke="black" stroke-width="3" stroke-linecap="round"/>
<path d="M2265.16 140.207C2265.16 142.214 2264.85 144.208 2264.85 146.217C2264.83 149.442 2264.54 152.86 2265.43 156C2266.22 158.805 2267.3 161.526 2268.56 164.156C2269.01 165.109 2269.43 166.12 2270.03 166.992C2270.12 167.12 2270.56 167.903 2270.71 167.62" stroke="black" stroke-width="3" stroke-linecap="round"/>
<path d="M4096.12 119.33C4087.29 119.33 4076.29 120.458 4073.26 109.855C4071.03 102.051 4066.34 94.3952 4066.34 86.2046C4066.34 81.148 4065.98 75.9397 4066.38 70.9016C4066.94 63.9533 4071.8 58.4159 4077.02 54.3577C4086.73 46.8092 4104.21 45.3211 4114.02 53.3425C4118.17 56.7379 4119.58 61.6145 4122.89 65.5248C4126.03 69.2305 4127.25 73.9172 4127.25 78.7223C4127.25 84.0693 4127.49 89.3598 4126.58 94.627C4125.7 99.6839 4123.35 103.744 4121.99 108.501C4120.28 114.47 4112.09 118.075 4106.61 119.292C4104.26 119.816 4101.6 119.609 4099.2 120.044C4096.79 120.484 4094.62 120.684 4092.06 120.684" stroke="black" stroke-width="3" stroke-linecap="round"/>
<path d="M4097.24 120.234C4097.24 130.843 4097.24 141.451 4097.24 152.06C4097.24 158.837 4098.33 166.875 4096.99 173.564C4095.78 179.62 4092.81 184.741 4092.81 191.013C4092.81 195.576 4092.7 197.988 4090.6 202.073C4084.22 214.474 4076.79 225.853 4069.59 237.708C4065.34 244.705 4063.94 259.581 4053 259.581" stroke="black" stroke-width="3" stroke-linecap="round"/>
<path d="M4091.71 194.331C4091.71 205.864 4093.07 215.19 4097.73 225.789C4100.22 231.457 4104.18 239.326 4108.54 243.852C4112.66 248.124 4116.51 253.564 4121.57 256.816C4125.66 259.447 4127.91 265.75 4132.63 267.323" stroke="black" stroke-width="3" stroke-linecap="round"/>
<path d="M4097.24 156.73C4086.18 156.73 4071.95 151.614 4062.71 145.67C4058.41 142.91 4056.74 140.306 4055.21 135.717" stroke="black" stroke-width="3" stroke-linecap="round"/>
<path d="M4097.24 156.73C4104.03 156.112 4110 151.31 4116.59 149.603C4123.07 147.924 4129.47 146.068 4135.94 144.319C4140.35 143.129 4153.92 137.361 4155.85 133.505" stroke="black" stroke-width="3" stroke-linecap="round"/>
<path d="M4119.38 79.2934C4115.49 79.2934 4110.26 81.2724 4109.39 85.5309C4108.67 89.0558 4107.56 94.9307 4110.95 97.2751C4116.45 101.082 4126.48 99.9376 4129.22 92.8893C4130.67 89.1809 4132.45 83.5059 4130.56 79.732C4128.21 75.0262 4123.45 73.1533 4118.53 73.1533C4113.83 73.1533 4110.34 73.3318 4108.42 77.7584C4106.28 82.6805 4107.15 92.2447 4111.05 95.9593C4114.8 99.5293 4119.32 93.974 4122.11 92.0121C4125.2 89.8395 4126.74 85.4242 4127.62 81.9249C4128.88 76.8609 4121.85 75.355 4118.16 76.6619C4116.62 77.2066 4112.57 78.1631 4112.36 80.1706C4112.11 82.5355 4112.7 84.1253 4113.63 86.2619C4115.26 89.9906 4115.16 92.7301 4119.99 91.9878C4122.57 91.5913 4122.36 85.4446 4122.01 83.7035C4121.04 78.8435 4118.93 79.2934 4114.34 79.2934C4112.37 79.2934 4115.02 83.6631 4115.41 84.2639C4116.34 85.7204 4117.95 86.3305 4119.38 87.1878" stroke="black" stroke-width="3" stroke-linecap="round"/>
<path d="M4118.07 74.4691C4118.07 65.1761 4115.43 56.9114 4111.27 48.593C4109.75 45.5502 4105.05 44.3857 4101.84 44.2073C4098.32 44.0117 4094.59 43.3301 4091.09 43.3301C4088.84 43.3301 4085.01 42.5261 4082.98 43.4276C4079.01 45.1925 4073.96 46.6901 4071.92 50.7859C4070.75 53.118 4070.26 54.6371 4070.26 57.3646C4070.26 59.6714 4068.51 60.7477 4068.51 63.0661" stroke="black" stroke-width="3" stroke-linecap="round"/>
<path d="M4065 73.5918C4063.06 74.0214 4061.96 77.9755 4061.93 79.6344C4061.88 81.8723 4061.9 84.0459 4062.8 86.0913C4063.6 87.8814 4064.93 89.318 4066.31 90.6963C4066.97 91.3524 4068.92 93.3278 4067.63 93.3278C4066.06 93.3278 4064.5 93.0848 4063.24 94.2049C4062.28 95.0646 4060.95 95.6191 4059.95 94.3999C4057.82 91.7861 4057.21 86.9873 4056.57 83.7765C4056.11 81.4712 4056.34 80.278 4057.1 78.1725C4058.92 73.1719 4062.18 71.3989 4067.19 71.3989C4071.45 71.3989 4065.07 82.5698 4064.46 84.4588C4063.81 86.4754 4063.68 88.7446 4063.68 90.8669C4063.68 92.4847 4064.22 93.8414 4062.27 93.7664C4058.43 93.6189 4059.73 83.4424 4059.73 80.609" stroke="black" stroke-width="3" stroke-linecap="round"/>
<path d="M4066.31 76.2234C4070.84 76.2234 4074.71 77.2388 4079.03 78.3188C4079.77 78.503 4083.51 78.9361 4083.86 79.5371C4085.39 82.213 4084.87 89.9945 4082.54 92.4507C4079.57 95.5901 4076.35 95.5208 4072.23 95.5208C4068.15 95.5208 4069.32 88.9106 4066.75 87.6264" stroke="black" stroke-width="3" stroke-linecap="round"/>
<path d="M4083.42 79.2935C4088.09 79.2935 4092.87 79.732 4097.45 79.732C4100.88 79.732 4104.32 81.0478 4107.54 81.0478" stroke="black" stroke-width="3" stroke-linecap="round"/>
<path d="M4090.87 80.6091C4090.87 83.6792 4090.87 86.7492 4090.87 89.8192C4090.87 90.8174 4090.51 92.8387 4090.97 93.7664C4092.3 96.4345 4094.27 97.984 4097.11 98.9319C4099.99 99.8911 4103.1 99.6522 4105.88 98.6882C4108.68 97.7204 4108.92 96.6976 4110.17 94.205" stroke="black" stroke-width="3" stroke-linecap="round"/>
<path d="M4098.73 138.374C4106.88 138.374 4116.85 139.609 4121.81 147.044C4125.27 152.225 4125.04 159.897 4125.04 165.87C4125.04 174.598 4113.01 177.985 4106.58 180.619C4103.91 181.709 4100.95 183.158 4098.06 183.158C4096.24 183.158 4094.9 182.697 4093.19 182.697" stroke="black" stroke-width="3" stroke-linecap="round"/>
<path d="M4096.27 140.071C4093.42 142.921 4092.43 147.124 4091.66 150.973C4090.99 154.298 4091.15 158.361 4091.11 161.752C4091.07 164.238 4091.11 166.726 4091.11 169.212" stroke="black" stroke-width="3" stroke-linecap="round"/>
<path d="M4101.16 140.207C4101.16 142.214 4100.85 144.208 4100.85 146.217C4100.83 149.442 4100.54 152.86 4101.43 156C4102.22 158.805 4103.3 161.526 4104.56 164.156C4105.01 165.109 4105.43 166.12 4106.03 166.992C4106.12 167.12 4106.56 167.903 4106.71 167.62" stroke="black" stroke-width="3" stroke-linecap="round"/>
<path d="M5932.12 119.33C5923.29 119.33 5912.29 120.458 5909.26 109.855C5907.03 102.051 5902.34 94.3952 5902.34 86.2046C5902.34 81.148 5901.98 75.9397 5902.38 70.9016C5902.93 63.9533 5907.8 58.4159 5913.02 54.3577C5922.72 46.8092 5940.21 45.3211 5950.02 53.3425C5954.17 56.7379 5955.58 61.6145 5958.89 65.5248C5962.03 69.2305 5963.25 73.9172 5963.25 78.7223C5963.25 84.0693 5963.49 89.3598 5962.58 94.627C5961.7 99.6839 5959.35 103.744 5957.99 108.501C5956.28 114.47 5948.09 118.075 5942.61 119.292C5940.26 119.816 5937.6 119.609 5935.2 120.044C5932.79 120.484 5930.62 120.684 5928.06 120.684" stroke="black" stroke-width="3" stroke-linecap="round"/>
<path d="M5933.24 120.234C5933.24 130.843 5933.24 141.451 5933.24 152.06C5933.24 158.837 5934.33 166.875 5932.99 173.564C5931.78 179.62 5928.81 184.741 5928.81 191.013C5928.81 195.576 5928.7 197.988 5926.6 202.073C5920.22 214.474 5912.79 225.853 5905.59 237.708C5901.34 244.705 5899.94 259.581 5889 259.581" stroke="black" stroke-width="3" stroke-linecap="round"/>
<path d="M5927.71 194.331C5927.71 205.864 5929.06 215.19 5933.73 225.789C5936.22 231.457 5940.18 239.326 5944.54 243.852C5948.65 248.124 5952.51 253.564 5957.57 256.816C5961.66 259.447 5963.91 265.75 5968.63 267.323" stroke="black" stroke-width="3" stroke-linecap="round"/>
<path d="M5933.24 156.73C5922.18 156.73 5907.95 151.614 5898.71 145.67C5894.41 142.91 5892.74 140.306 5891.21 135.717" stroke="black" stroke-width="3" stroke-linecap="round"/>
<path d="M5933.24 156.73C5940.03 156.112 5946 151.31 5952.59 149.603C5959.07 147.924 5965.47 146.068 5971.94 144.319C5976.35 143.129 5989.92 137.361 5991.85 133.505" stroke="black" stroke-width="3" stroke-linecap="round"/>
<path d="M5955.38 79.2934C5951.49 79.2934 5946.26 81.2724 5945.39 85.5309C5944.67 89.0558 5943.56 94.9307 5946.95 97.2751C5952.45 101.082 5962.48 99.9376 5965.22 92.8893C5966.67 89.1809 5968.45 83.5059 5966.56 79.732C5964.21 75.0262 5959.45 73.1533 5954.53 73.1533C5949.83 73.1533 5946.34 73.3318 5944.42 77.7584C5942.28 82.6805 5943.15 92.2447 5947.05 95.9593C5950.8 99.5293 5955.32 93.974 5958.11 92.0121C5961.2 89.8395 5962.74 85.4242 5963.62 81.9249C5964.88 76.8609 5957.85 75.355 5954.16 76.6619C5952.62 77.2066 5948.57 78.1631 5948.36 80.1706C5948.11 82.5355 5948.7 84.1253 5949.63 86.2619C5951.26 89.9906 5951.16 92.7301 5955.99 91.9878C5958.57 91.5913 5958.36 85.4446 5958.01 83.7035C5957.04 78.8435 5954.93 79.2934 5950.34 79.2934C5948.37 79.2934 5951.02 83.6631 5951.41 84.2639C5952.34 85.7204 5953.95 86.3305 5955.38 87.1878" stroke="black" stroke-width="3" stroke-linecap="round"/>
<path d="M5954.07 74.4691C5954.07 65.1761 5951.43 56.9114 5947.27 48.593C5945.75 45.5502 5941.05 44.3857 5937.84 44.2073C5934.32 44.0117 5930.59 43.3301 5927.09 43.3301C5924.84 43.3301 5921.01 42.5261 5918.98 43.4276C5915.01 45.1925 5909.96 46.6901 5907.92 50.7859C5906.75 53.118 5906.26 54.6371 5906.26 57.3646C5906.26 59.6714 5904.51 60.7477 5904.51 63.0661" stroke="black" stroke-width="3" stroke-linecap="round"/>
<path d="M5901 73.5918C5899.06 74.0214 5897.96 77.9755 5897.93 79.6344C5897.88 81.8723 5897.89 84.0459 5898.8 86.0913C5899.6 87.8814 5900.93 89.318 5902.31 90.6963C5902.97 91.3524 5904.92 93.3278 5903.63 93.3278C5902.06 93.3278 5900.5 93.0848 5899.24 94.2049C5898.28 95.0646 5896.95 95.6191 5895.95 94.3999C5893.81 91.7861 5893.21 86.9873 5892.57 83.7765C5892.11 81.4712 5892.34 80.278 5893.1 78.1725C5894.92 73.1719 5898.18 71.3989 5903.19 71.3989C5907.45 71.3989 5901.07 82.5698 5900.46 84.4588C5899.81 86.4754 5899.68 88.7446 5899.68 90.8669C5899.68 92.4847 5900.22 93.8414 5898.27 93.7664C5894.43 93.6189 5895.73 83.4424 5895.73 80.609" stroke="black" stroke-width="3" stroke-linecap="round"/>
<path d="M5902.31 76.2234C5906.84 76.2234 5910.71 77.2388 5915.03 78.3188C5915.77 78.503 5919.51 78.9361 5919.86 79.5371C5921.38 82.213 5920.87 89.9945 5918.54 92.4507C5915.57 95.5901 5912.35 95.5208 5908.23 95.5208C5904.15 95.5208 5905.32 88.9106 5902.75 87.6264" stroke="black" stroke-width="3" stroke-linecap="round"/>
<path d="M5919.42 79.2935C5924.09 79.2935 5928.87 79.732 5933.45 79.732C5936.88 79.732 5940.32 81.0478 5943.54 81.0478" stroke="black" stroke-width="3" stroke-linecap="round"/>
<path d="M5926.87 80.6091C5926.87 83.6792 5926.87 86.7492 5926.87 89.8192C5926.87 90.8174 5926.51 92.8387 5926.97 93.7664C5928.31 96.4345 5930.27 97.984 5933.11 98.9319C5935.99 99.8911 5939.1 99.6522 5941.88 98.6882C5944.68 97.7204 5944.92 96.6976 5946.17 94.205" stroke="black" stroke-width="3" stroke-linecap="round"/>
<path d="M5934.73 138.374C5942.88 138.374 5952.85 139.609 5957.81 147.044C5961.27 152.225 5961.04 159.897 5961.04 165.87C5961.04 174.598 5949.01 177.985 5942.58 180.619C5939.91 181.709 5936.95 183.158 5934.06 183.158C5932.24 183.158 5930.9 182.697 5929.19 182.697" stroke="black" stroke-width="3" stroke-linecap="round"/>
<path d="M5932.27 140.071C5929.42 142.921 5928.43 147.124 5927.66 150.973C5926.99 154.298 5927.15 158.361 5927.1 161.752C5927.07 164.238 5927.1 166.726 5927.1 169.212" stroke="black" stroke-width="3" stroke-linecap="round"/>
<path d="M5937.16 140.207C5937.16 142.214 5936.86 144.208 5936.85 146.217C5936.83 149.442 5936.54 152.86 5937.43 156C5938.23 158.805 5939.3 161.526 5940.56 164.156C5941.01 165.109 5941.43 166.12 5942.03 166.992C5942.12 167.12 5942.56 167.903 5942.71 167.62" stroke="black" stroke-width="3" stroke-linecap="round"/>
<path d="M882.909 117.33C874.074 117.33 863.078 118.458 860.048 107.855C857.818 100.051 853.13 92.3952 853.13 84.2046C853.13 79.148 852.764 73.9397 853.167 68.9016C853.723 61.9533 858.591 56.4159 863.808 52.3577C873.513 44.8092 891.002 43.3211 900.806 51.3425C904.956 54.7379 906.371 59.6145 909.68 63.5248C912.815 67.2305 914.041 71.9172 914.041 76.7223C914.041 82.0693 914.281 87.3598 913.365 92.627C912.485 97.6839 910.137 101.744 908.777 106.501C907.072 112.47 898.878 116.075 893.399 117.292C891.044 117.816 888.388 117.609 885.992 118.044C883.575 118.484 881.409 118.684 878.848 118.684" stroke="black" stroke-width="3" stroke-linecap="round"/>
<path d="M884.487 118C884.487 129.344 884.487 140.687 884.487 152.031C884.487 159.278 885.27 167.872 884.311 175.025C883.443 181.5 881.317 186.975 881.317 193.683C881.317 198.561 881.238 201.14 879.732 205.508C875.162 218.768 869.833 230.935 864.675 243.612C861.631 251.093 860.631 267 852.788 267" stroke="black" stroke-width="3" stroke-linecap="round"/>
<path d="M881.788 194C881.788 205.534 882.551 214.861 885.172 225.461C886.574 231.13 888.8 239 891.251 243.527C893.562 247.799 895.728 253.239 898.572 256.492C900.872 259.124 902.136 265.427 904.788 267" stroke="black" stroke-width="3" stroke-linecap="round"/>
<path d="M884.025 154.73C872.969 154.73 858.741 149.614 849.496 143.67C845.202 140.91 843.53 138.306 842 133.717" stroke="black" stroke-width="3" stroke-linecap="round"/>
<path d="M884.025 154.73C890.816 154.112 896.793 149.31 903.379 147.603C909.854 145.924 916.259 144.068 922.733 142.319C927.136 141.129 940.712 135.361 942.64 131.505" stroke="black" stroke-width="3" stroke-linecap="round"/>
<path d="M906.169 77.2934C902.276 77.2934 897.05 79.2724 896.179 83.5309C895.458 87.0558 894.352 92.9307 897.739 95.2751C903.238 99.082 913.272 97.9376 916.013 90.8893C917.455 87.1809 919.24 81.5059 917.353 77.732C915 73.0262 910.243 71.1533 905.316 71.1533C900.619 71.1533 897.129 71.3318 895.205 75.7584C893.065 80.6805 893.936 90.2447 897.836 93.9593C901.585 97.5293 906.11 91.974 908.898 90.0121C911.986 87.8395 913.53 83.4242 914.405 79.9249C915.671 74.8609 908.641 73.355 904.951 74.6619C903.413 75.2066 899.363 76.1631 899.152 78.1706C898.903 80.5355 899.484 82.1253 900.419 84.2619C902.05 87.9906 901.953 90.7301 906.778 89.9878C909.355 89.5913 909.149 83.4446 908.801 81.7035C907.829 76.8435 905.717 77.2934 901.126 77.2934C899.156 77.2934 901.813 81.6631 902.198 82.2639C903.13 83.7204 904.74 84.3305 906.169 85.1878" stroke="black" stroke-width="3" stroke-linecap="round"/>
<path d="M904.853 72.4691C904.853 63.1761 902.214 54.9114 898.055 46.593C896.534 43.5502 891.837 42.3857 888.626 42.2073C885.106 42.0117 881.374 41.3301 877.881 41.3301C875.628 41.3301 871.795 40.5261 869.767 41.4276C865.796 43.1925 860.753 44.6901 858.705 48.7859C857.539 51.118 857.048 52.6371 857.048 55.3646C857.048 57.6714 855.294 58.7477 855.294 61.0661" stroke="black" stroke-width="3" stroke-linecap="round"/>
<path d="M851.785 71.5918C849.852 72.0214 848.752 75.9755 848.715 77.6344C848.666 79.8723 848.684 82.0459 849.593 84.0913C850.388 85.8814 851.723 87.318 853.101 88.6963C853.757 89.3524 855.713 91.3278 854.417 91.3278C852.846 91.3278 851.291 91.0848 850.031 92.2049C849.064 93.0646 847.739 93.6191 846.742 92.3999C844.603 89.7861 843.997 84.9873 843.355 81.7765C842.894 79.4712 843.125 78.278 843.891 76.1725C845.71 71.1719 848.972 69.3989 853.978 69.3989C858.242 69.3989 851.857 80.5698 851.249 82.4588C850.601 84.4754 850.47 86.7446 850.47 88.8669C850.47 90.4847 851.007 91.8414 849.057 91.7664C845.222 91.6189 846.523 81.4424 846.523 78.609" stroke="black" stroke-width="3" stroke-linecap="round"/>
<path d="M853.101 74.2234C857.624 74.2234 861.5 75.2388 865.82 76.3188C866.557 76.503 870.301 76.9361 870.644 77.5371C872.173 80.213 871.655 87.9945 869.328 90.4507C866.354 93.5901 863.14 93.5208 859.022 93.5208C854.935 93.5208 856.108 86.9106 853.54 85.6264" stroke="black" stroke-width="3" stroke-linecap="round"/>
<path d="M870.206 77.2935C874.877 77.2935 879.661 77.732 884.24 77.732C887.663 77.732 891.112 79.0478 894.327 79.0478" stroke="black" stroke-width="3" stroke-linecap="round"/>
<path d="M877.662 78.6091C877.662 81.6792 877.662 84.7492 877.662 87.8192C877.662 88.8174 877.295 90.8387 877.759 91.7664C879.093 94.4345 881.056 95.984 883.899 96.9319C886.777 97.8911 889.886 97.6522 892.671 96.6882C895.467 95.7204 895.713 94.6976 896.959 92.205" stroke="black" stroke-width="3" stroke-linecap="round"/>
<path d="M885.515 136.374C893.671 136.374 903.643 137.609 908.6 145.044C912.054 150.225 911.831 157.897 911.831 163.87C911.831 172.598 899.803 175.985 893.364 178.619C890.7 179.709 887.736 181.158 884.848 181.158C883.03 181.158 881.69 180.697 879.975 180.697" stroke="black" stroke-width="3" stroke-linecap="round"/>
<path d="M883.057 138.071C880.207 140.921 879.216 145.124 878.447 148.973C877.782 152.298 877.936 156.361 877.893 159.752C877.862 162.238 877.893 164.726 877.893 167.212" stroke="black" stroke-width="3" stroke-linecap="round"/>
<path d="M887.949 138.207C887.949 140.214 887.643 142.208 887.635 144.217C887.622 147.442 887.324 150.86 888.216 154C889.013 156.805 890.088 159.526 891.344 162.156C891.799 163.109 892.215 164.12 892.82 164.992C892.909 165.12 893.353 165.903 893.494 165.62" stroke="black" stroke-width="3" stroke-linecap="round"/>
<path d="M1802.91 116.33C1794.07 116.33 1783.08 117.458 1780.05 106.855C1777.82 99.0508 1773.13 91.3952 1773.13 83.2046C1773.13 78.148 1772.76 72.9397 1773.17 67.9016C1773.72 60.9533 1778.59 55.4159 1783.81 51.3577C1793.51 43.8092 1811 42.3211 1820.81 50.3425C1824.96 53.7379 1826.37 58.6145 1829.68 62.5248C1832.82 66.2305 1834.04 70.9172 1834.04 75.7223C1834.04 81.0693 1834.28 86.3598 1833.36 91.627C1832.49 96.6839 1830.14 100.744 1828.78 105.501C1827.07 111.47 1818.88 115.075 1813.4 116.292C1811.04 116.816 1808.39 116.609 1805.99 117.044C1803.58 117.484 1801.41 117.684 1798.85 117.684" stroke="black" stroke-width="3" stroke-linecap="round"/>
<path d="M1804.49 117C1804.49 128.344 1804.49 139.687 1804.49 151.031C1804.49 158.278 1805.27 166.872 1804.31 174.025C1803.44 180.5 1801.32 185.975 1801.32 192.683C1801.32 197.561 1801.24 200.14 1799.73 204.508C1795.16 217.768 1789.83 229.935 1784.68 242.612C1781.63 250.093 1780.63 266 1772.79 266" stroke="black" stroke-width="3" stroke-linecap="round"/>
<path d="M1801.79 193C1801.79 204.534 1802.55 213.861 1805.17 224.461C1806.57 230.13 1808.8 238 1811.25 242.527C1813.56 246.799 1815.73 252.239 1818.57 255.492C1820.87 258.124 1822.14 264.427 1824.79 266" stroke="black" stroke-width="3" stroke-linecap="round"/>
<path d="M1804.03 153.73C1792.97 153.73 1778.74 148.614 1769.5 142.67C1765.2 139.91 1763.53 137.306 1762 132.717" stroke="black" stroke-width="3" stroke-linecap="round"/>
<path d="M1804.03 153.73C1810.82 153.112 1816.79 148.31 1823.38 146.603C1829.85 144.924 1836.26 143.068 1842.73 141.319C1847.14 140.129 1860.71 134.361 1862.64 130.505" stroke="black" stroke-width="3" stroke-linecap="round"/>
<path d="M1826.17 76.2934C1822.28 76.2934 1817.05 78.2724 1816.18 82.5309C1815.46 86.0558 1814.35 91.9307 1817.74 94.2751C1823.24 98.082 1833.27 96.9376 1836.01 89.8893C1837.46 86.1809 1839.24 80.5059 1837.35 76.732C1835 72.0262 1830.24 70.1533 1825.32 70.1533C1820.62 70.1533 1817.13 70.3318 1815.2 74.7584C1813.06 79.6805 1813.94 89.2447 1817.84 92.9593C1821.58 96.5293 1826.11 90.974 1828.9 89.0121C1831.99 86.8395 1833.53 82.4242 1834.4 78.9249C1835.67 73.8609 1828.64 72.355 1824.95 73.6619C1823.41 74.2066 1819.36 75.1631 1819.15 77.1706C1818.9 79.5355 1819.48 81.1253 1820.42 83.2619C1822.05 86.9906 1821.95 89.7301 1826.78 88.9878C1829.36 88.5913 1829.15 82.4446 1828.8 80.7035C1827.83 75.8435 1825.72 76.2934 1821.13 76.2934C1819.16 76.2934 1821.81 80.6631 1822.2 81.2639C1823.13 82.7204 1824.74 83.3305 1826.17 84.1878" stroke="black" stroke-width="3" stroke-linecap="round"/>
<path d="M1824.85 71.4691C1824.85 62.1761 1822.21 53.9114 1818.06 45.593C1816.53 42.5502 1811.84 41.3857 1808.63 41.2073C1805.11 41.0117 1801.37 40.3301 1797.88 40.3301C1795.63 40.3301 1791.8 39.5261 1789.77 40.4276C1785.8 42.1925 1780.75 43.6901 1778.71 47.7859C1777.54 50.118 1777.05 51.6371 1777.05 54.3646C1777.05 56.6714 1775.29 57.7477 1775.29 60.0661" stroke="black" stroke-width="3" stroke-linecap="round"/>
<path d="M1771.79 70.5918C1769.85 71.0214 1768.75 74.9755 1768.72 76.6344C1768.67 78.8723 1768.68 81.0459 1769.59 83.0913C1770.39 84.8814 1771.72 86.318 1773.1 87.6963C1773.76 88.3524 1775.71 90.3278 1774.42 90.3278C1772.85 90.3278 1771.29 90.0848 1770.03 91.2049C1769.06 92.0646 1767.74 92.6191 1766.74 91.3999C1764.6 88.7861 1764 83.9873 1763.36 80.7765C1762.89 78.4712 1763.13 77.278 1763.89 75.1725C1765.71 70.1719 1768.97 68.3989 1773.98 68.3989C1778.24 68.3989 1771.86 79.5698 1771.25 81.4588C1770.6 83.4754 1770.47 85.7446 1770.47 87.8669C1770.47 89.4847 1771.01 90.8414 1769.06 90.7664C1765.22 90.6189 1766.52 80.4424 1766.52 77.609" stroke="black" stroke-width="3" stroke-linecap="round"/>
<path d="M1773.1 73.2234C1777.62 73.2234 1781.5 74.2388 1785.82 75.3188C1786.56 75.503 1790.3 75.9361 1790.64 76.5371C1792.17 79.213 1791.66 86.9945 1789.33 89.4507C1786.35 92.5901 1783.14 92.5208 1779.02 92.5208C1774.93 92.5208 1776.11 85.9106 1773.54 84.6264" stroke="black" stroke-width="3" stroke-linecap="round"/>
<path d="M1790.21 76.2935C1794.88 76.2935 1799.66 76.732 1804.24 76.732C1807.66 76.732 1811.11 78.0478 1814.33 78.0478" stroke="black" stroke-width="3" stroke-linecap="round"/>
<path d="M1797.66 77.6091C1797.66 80.6792 1797.66 83.7492 1797.66 86.8192C1797.66 87.8174 1797.3 89.8387 1797.76 90.7664C1799.09 93.4345 1801.06 94.984 1803.9 95.9319C1806.78 96.8911 1809.89 96.6522 1812.67 95.6882C1815.47 94.7204 1815.71 93.6976 1816.96 91.205" stroke="black" stroke-width="3" stroke-linecap="round"/>
<path d="M1805.51 135.374C1813.67 135.374 1823.64 136.609 1828.6 144.044C1832.05 149.225 1831.83 156.897 1831.83 162.87C1831.83 171.598 1819.8 174.985 1813.36 177.619C1810.7 178.709 1807.74 180.158 1804.85 180.158C1803.03 180.158 1801.69 179.697 1799.97 179.697" stroke="black" stroke-width="3" stroke-linecap="round"/>
<path d="M1803.06 137.071C1800.21 139.921 1799.22 144.124 1798.45 147.973C1797.78 151.298 1797.94 155.361 1797.89 158.752C1797.86 161.238 1797.89 163.726 1797.89 166.212" stroke="black" stroke-width="3" stroke-linecap="round"/>
<path d="M1807.95 137.207C1807.95 139.214 1807.64 141.208 1807.64 143.217C1807.62 146.442 1807.32 149.86 1808.22 153C1809.01 155.805 1810.09 158.526 1811.34 161.156C1811.8 162.109 1812.21 163.12 1812.82 163.992C1812.91 164.12 1813.35 164.903 1813.49 164.62" stroke="black" stroke-width="3" stroke-linecap="round"/>
<path d="M2718.91 116.33C2710.07 116.33 2699.08 117.458 2696.05 106.855C2693.82 99.0508 2689.13 91.3952 2689.13 83.2046C2689.13 78.148 2688.76 72.9397 2689.17 67.9016C2689.72 60.9533 2694.59 55.4159 2699.81 51.3577C2709.51 43.8092 2727 42.3211 2736.81 50.3425C2740.96 53.7379 2742.37 58.6145 2745.68 62.5248C2748.82 66.2305 2750.04 70.9172 2750.04 75.7223C2750.04 81.0693 2750.28 86.3598 2749.36 91.627C2748.49 96.6839 2746.14 100.744 2744.78 105.501C2743.07 111.47 2734.88 115.075 2729.4 116.292C2727.04 116.816 2724.39 116.609 2721.99 117.044C2719.58 117.484 2717.41 117.684 2714.85 117.684" stroke="black" stroke-width="3" stroke-linecap="round"/>
<path d="M2720.49 117C2720.49 128.344 2720.49 139.687 2720.49 151.031C2720.49 158.278 2721.27 166.872 2720.31 174.025C2719.44 180.5 2717.32 185.975 2717.32 192.683C2717.32 197.561 2717.24 200.14 2715.73 204.508C2711.16 217.768 2705.83 229.935 2700.68 242.612C2697.63 250.093 2696.63 266 2688.79 266" stroke="black" stroke-width="3" stroke-linecap="round"/>
<path d="M2717.79 193C2717.79 204.534 2718.55 213.861 2721.17 224.461C2722.57 230.13 2724.8 238 2727.25 242.527C2729.56 246.799 2731.73 252.239 2734.57 255.492C2736.87 258.124 2738.14 264.427 2740.79 266" stroke="black" stroke-width="3" stroke-linecap="round"/>
<path d="M2720.03 153.73C2708.97 153.73 2694.74 148.614 2685.5 142.67C2681.2 139.91 2679.53 137.306 2678 132.717" stroke="black" stroke-width="3" stroke-linecap="round"/>
<path d="M2720.03 153.73C2726.82 153.112 2732.79 148.31 2739.38 146.603C2745.85 144.924 2752.26 143.068 2758.73 141.319C2763.14 140.129 2776.71 134.361 2778.64 130.505" stroke="black" stroke-width="3" stroke-linecap="round"/>
<path d="M2742.17 76.2934C2738.28 76.2934 2733.05 78.2724 2732.18 82.5309C2731.46 86.0558 2730.35 91.9307 2733.74 94.2751C2739.24 98.082 2749.27 96.9376 2752.01 89.8893C2753.46 86.1809 2755.24 80.5059 2753.35 76.732C2751 72.0262 2746.24 70.1533 2741.32 70.1533C2736.62 70.1533 2733.13 70.3318 2731.2 74.7584C2729.06 79.6805 2729.94 89.2447 2733.84 92.9593C2737.58 96.5293 2742.11 90.974 2744.9 89.0121C2747.99 86.8395 2749.53 82.4242 2750.4 78.9249C2751.67 73.8609 2744.64 72.355 2740.95 73.6619C2739.41 74.2066 2735.36 75.1631 2735.15 77.1706C2734.9 79.5355 2735.48 81.1253 2736.42 83.2619C2738.05 86.9906 2737.95 89.7301 2742.78 88.9878C2745.36 88.5913 2745.15 82.4446 2744.8 80.7035C2743.83 75.8435 2741.72 76.2934 2737.13 76.2934C2735.16 76.2934 2737.81 80.6631 2738.2 81.2639C2739.13 82.7204 2740.74 83.3305 2742.17 84.1878" stroke="black" stroke-width="3" stroke-linecap="round"/>
<path d="M2740.85 71.4691C2740.85 62.1761 2738.21 53.9114 2734.06 45.593C2732.53 42.5502 2727.84 41.3857 2724.63 41.2073C2721.11 41.0117 2717.37 40.3301 2713.88 40.3301C2711.63 40.3301 2707.8 39.5261 2705.77 40.4276C2701.8 42.1925 2696.75 43.6901 2694.71 47.7859C2693.54 50.118 2693.05 51.6371 2693.05 54.3646C2693.05 56.6714 2691.29 57.7477 2691.29 60.0661" stroke="black" stroke-width="3" stroke-linecap="round"/>
<path d="M2687.79 70.5918C2685.85 71.0214 2684.75 74.9755 2684.72 76.6344C2684.67 78.8723 2684.68 81.0459 2685.59 83.0913C2686.39 84.8814 2687.72 86.318 2689.1 87.6963C2689.76 88.3524 2691.71 90.3278 2690.42 90.3278C2688.85 90.3278 2687.29 90.0848 2686.03 91.2049C2685.06 92.0646 2683.74 92.6191 2682.74 91.3999C2680.6 88.7861 2680 83.9873 2679.36 80.7765C2678.89 78.4712 2679.13 77.278 2679.89 75.1725C2681.71 70.1719 2684.97 68.3989 2689.98 68.3989C2694.24 68.3989 2687.86 79.5698 2687.25 81.4588C2686.6 83.4754 2686.47 85.7446 2686.47 87.8669C2686.47 89.4847 2687.01 90.8414 2685.06 90.7664C2681.22 90.6189 2682.52 80.4424 2682.52 77.609" stroke="black" stroke-width="3" stroke-linecap="round"/>
<path d="M2689.1 73.2234C2693.62 73.2234 2697.5 74.2388 2701.82 75.3188C2702.56 75.503 2706.3 75.9361 2706.64 76.5371C2708.17 79.213 2707.66 86.9945 2705.33 89.4507C2702.35 92.5901 2699.14 92.5208 2695.02 92.5208C2690.93 92.5208 2692.11 85.9106 2689.54 84.6264" stroke="black" stroke-width="3" stroke-linecap="round"/>
<path d="M2706.21 76.2935C2710.88 76.2935 2715.66 76.732 2720.24 76.732C2723.66 76.732 2727.11 78.0478 2730.33 78.0478" stroke="black" stroke-width="3" stroke-linecap="round"/>
<path d="M2713.66 77.6091C2713.66 80.6792 2713.66 83.7492 2713.66 86.8192C2713.66 87.8174 2713.3 89.8387 2713.76 90.7664C2715.09 93.4345 2717.06 94.984 2719.9 95.9319C2722.78 96.8911 2725.89 96.6522 2728.67 95.6882C2731.47 94.7204 2731.71 93.6976 2732.96 91.205" stroke="black" stroke-width="3" stroke-linecap="round"/>
<path d="M2721.51 135.374C2729.67 135.374 2739.64 136.609 2744.6 144.044C2748.05 149.225 2747.83 156.897 2747.83 162.87C2747.83 171.598 2735.8 174.985 2729.36 177.619C2726.7 178.709 2723.74 180.158 2720.85 180.158C2719.03 180.158 2717.69 179.697 2715.97 179.697" stroke="black" stroke-width="3" stroke-linecap="round"/>
<path d="M2719.06 137.071C2716.21 139.921 2715.22 144.124 2714.45 147.973C2713.78 151.298 2713.94 155.361 2713.89 158.752C2713.86 161.238 2713.89 163.726 2713.89 166.212" stroke="black" stroke-width="3" stroke-linecap="round"/>
<path d="M2723.95 137.207C2723.95 139.214 2723.64 141.208 2723.64 143.217C2723.62 146.442 2723.32 149.86 2724.22 153C2725.01 155.805 2726.09 158.526 2727.34 161.156C2727.8 162.109 2728.21 163.12 2728.82 163.992C2728.91 164.12 2729.35 164.903 2729.49 164.62" stroke="black" stroke-width="3" stroke-linecap="round"/>
<path d="M3636.91 116.33C3628.07 116.33 3617.08 117.458 3614.05 106.855C3611.82 99.0508 3607.13 91.3952 3607.13 83.2046C3607.13 78.148 3606.76 72.9397 3607.17 67.9016C3607.72 60.9533 3612.59 55.4159 3617.81 51.3577C3627.51 43.8092 3645 42.3211 3654.81 50.3425C3658.96 53.7379 3660.37 58.6145 3663.68 62.5248C3666.82 66.2305 3668.04 70.9172 3668.04 75.7223C3668.04 81.0693 3668.28 86.3598 3667.36 91.627C3666.49 96.6839 3664.14 100.744 3662.78 105.501C3661.07 111.47 3652.88 115.075 3647.4 116.292C3645.04 116.816 3642.39 116.609 3639.99 117.044C3637.58 117.484 3635.41 117.684 3632.85 117.684" stroke="black" stroke-width="3" stroke-linecap="round"/>
<path d="M3638.49 117C3638.49 128.344 3638.49 139.687 3638.49 151.031C3638.49 158.278 3639.27 166.872 3638.31 174.025C3637.44 180.5 3635.32 185.975 3635.32 192.683C3635.32 197.561 3635.24 200.14 3633.73 204.508C3629.16 217.768 3623.83 229.935 3618.68 242.612C3615.63 250.093 3614.63 266 3606.79 266" stroke="black" stroke-width="3" stroke-linecap="round"/>
<path d="M3635.79 193C3635.79 204.534 3636.55 213.861 3639.17 224.461C3640.57 230.13 3642.8 238 3645.25 242.527C3647.56 246.799 3649.73 252.239 3652.57 255.492C3654.87 258.124 3656.14 264.427 3658.79 266" stroke="black" stroke-width="3" stroke-linecap="round"/>
<path d="M3638.03 153.73C3626.97 153.73 3612.74 148.614 3603.5 142.67C3599.2 139.91 3597.53 137.306 3596 132.717" stroke="black" stroke-width="3" stroke-linecap="round"/>
<path d="M3638.03 153.73C3644.82 153.112 3650.79 148.31 3657.38 146.603C3663.85 144.924 3670.26 143.068 3676.73 141.319C3681.14 140.129 3694.71 134.361 3696.64 130.505" stroke="black" stroke-width="3" stroke-linecap="round"/>
<path d="M3660.17 76.2934C3656.28 76.2934 3651.05 78.2724 3650.18 82.5309C3649.46 86.0558 3648.35 91.9307 3651.74 94.2751C3657.24 98.082 3667.27 96.9376 3670.01 89.8893C3671.46 86.1809 3673.24 80.5059 3671.35 76.732C3669 72.0262 3664.24 70.1533 3659.32 70.1533C3654.62 70.1533 3651.13 70.3318 3649.2 74.7584C3647.06 79.6805 3647.94 89.2447 3651.84 92.9593C3655.58 96.5293 3660.11 90.974 3662.9 89.0121C3665.99 86.8395 3667.53 82.4242 3668.4 78.9249C3669.67 73.8609 3662.64 72.355 3658.95 73.6619C3657.41 74.2066 3653.36 75.1631 3653.15 77.1706C3652.9 79.5355 3653.48 81.1253 3654.42 83.2619C3656.05 86.9906 3655.95 89.7301 3660.78 88.9878C3663.36 88.5913 3663.15 82.4446 3662.8 80.7035C3661.83 75.8435 3659.72 76.2934 3655.13 76.2934C3653.16 76.2934 3655.81 80.6631 3656.2 81.2639C3657.13 82.7204 3658.74 83.3305 3660.17 84.1878" stroke="black" stroke-width="3" stroke-linecap="round"/>
<path d="M3658.85 71.4691C3658.85 62.1761 3656.21 53.9114 3652.06 45.593C3650.53 42.5502 3645.84 41.3857 3642.63 41.2073C3639.11 41.0117 3635.37 40.3301 3631.88 40.3301C3629.63 40.3301 3625.8 39.5261 3623.77 40.4276C3619.8 42.1925 3614.75 43.6901 3612.71 47.7859C3611.54 50.118 3611.05 51.6371 3611.05 54.3646C3611.05 56.6714 3609.29 57.7477 3609.29 60.0661" stroke="black" stroke-width="3" stroke-linecap="round"/>
<path d="M3605.79 70.5918C3603.85 71.0214 3602.75 74.9755 3602.72 76.6344C3602.67 78.8723 3602.68 81.0459 3603.59 83.0913C3604.39 84.8814 3605.72 86.318 3607.1 87.6963C3607.76 88.3524 3609.71 90.3278 3608.42 90.3278C3606.85 90.3278 3605.29 90.0848 3604.03 91.2049C3603.06 92.0646 3601.74 92.6191 3600.74 91.3999C3598.6 88.7861 3598 83.9873 3597.36 80.7765C3596.89 78.4712 3597.13 77.278 3597.89 75.1725C3599.71 70.1719 3602.97 68.3989 3607.98 68.3989C3612.24 68.3989 3605.86 79.5698 3605.25 81.4588C3604.6 83.4754 3604.47 85.7446 3604.47 87.8669C3604.47 89.4847 3605.01 90.8414 3603.06 90.7664C3599.22 90.6189 3600.52 80.4424 3600.52 77.609" stroke="black" stroke-width="3" stroke-linecap="round"/>
<path d="M3607.1 73.2234C3611.62 73.2234 3615.5 74.2388 3619.82 75.3188C3620.56 75.503 3624.3 75.9361 3624.64 76.5371C3626.17 79.213 3625.66 86.9945 3623.33 89.4507C3620.35 92.5901 3617.14 92.5208 3613.02 92.5208C3608.93 92.5208 3610.11 85.9106 3607.54 84.6264" stroke="black" stroke-width="3" stroke-linecap="round"/>
<path d="M3624.21 76.2935C3628.88 76.2935 3633.66 76.732 3638.24 76.732C3641.66 76.732 3645.11 78.0478 3648.33 78.0478" stroke="black" stroke-width="3" stroke-linecap="round"/>
<path d="M3631.66 77.6091C3631.66 80.6792 3631.66 83.7492 3631.66 86.8192C3631.66 87.8174 3631.3 89.8387 3631.76 90.7664C3633.09 93.4345 3635.06 94.984 3637.9 95.9319C3640.78 96.8911 3643.89 96.6522 3646.67 95.6882C3649.47 94.7204 3649.71 93.6976 3650.96 91.205" stroke="black" stroke-width="3" stroke-linecap="round"/>
<path d="M3639.51 135.374C3647.67 135.374 3657.64 136.609 3662.6 144.044C3666.05 149.225 3665.83 156.897 3665.83 162.87C3665.83 171.598 3653.8 174.985 3647.36 177.619C3644.7 178.709 3641.74 180.158 3638.85 180.158C3637.03 180.158 3635.69 179.697 3633.97 179.697" stroke="black" stroke-width="3" stroke-linecap="round"/>
<path d="M3637.06 137.071C3634.21 139.921 3633.22 144.124 3632.45 147.973C3631.78 151.298 3631.94 155.361 3631.89 158.752C3631.86 161.238 3631.89 163.726 3631.89 166.212" stroke="black" stroke-width="3" stroke-linecap="round"/>
<path d="M3641.95 137.207C3641.95 139.214 3641.64 141.208 3641.64 143.217C3641.62 146.442 3641.32 149.86 3642.22 153C3643.01 155.805 3644.09 158.526 3645.34 161.156C3645.8 162.109 3646.21 163.12 3646.82 163.992C3646.91 164.12 3647.35 164.903 3647.49 164.62" stroke="black" stroke-width="3" stroke-linecap="round"/>
<path d="M4554.91 116.33C4546.07 116.33 4535.08 117.458 4532.05 106.855C4529.82 99.0508 4525.13 91.3952 4525.13 83.2046C4525.13 78.148 4524.76 72.9397 4525.17 67.9016C4525.72 60.9533 4530.59 55.4159 4535.81 51.3577C4545.51 43.8092 4563 42.3211 4572.81 50.3425C4576.96 53.7379 4578.37 58.6145 4581.68 62.5248C4584.82 66.2305 4586.04 70.9172 4586.04 75.7223C4586.04 81.0693 4586.28 86.3598 4585.37 91.627C4584.49 96.6839 4582.14 100.744 4580.78 105.501C4579.07 111.47 4570.88 115.075 4565.4 116.292C4563.04 116.816 4560.39 116.609 4557.99 117.044C4555.58 117.484 4553.41 117.684 4550.85 117.684" stroke="black" stroke-width="3" stroke-linecap="round"/>
<path d="M4556.49 117C4556.49 128.344 4556.49 139.687 4556.49 151.031C4556.49 158.278 4557.27 166.872 4556.31 174.025C4555.44 180.5 4553.32 185.975 4553.32 192.683C4553.32 197.561 4553.24 200.14 4551.73 204.508C4547.16 217.768 4541.83 229.935 4536.68 242.612C4533.63 250.093 4532.63 266 4524.79 266" stroke="black" stroke-width="3" stroke-linecap="round"/>
<path d="M4553.79 193C4553.79 204.534 4554.55 213.861 4557.17 224.461C4558.57 230.13 4560.8 238 4563.25 242.527C4565.56 246.799 4567.73 252.239 4570.57 255.492C4572.87 258.124 4574.14 264.427 4576.79 266" stroke="black" stroke-width="3" stroke-linecap="round"/>
<path d="M4556.03 153.73C4544.97 153.73 4530.74 148.614 4521.5 142.67C4517.2 139.91 4515.53 137.306 4514 132.717" stroke="black" stroke-width="3" stroke-linecap="round"/>
<path d="M4556.03 153.73C4562.82 153.112 4568.79 148.31 4575.38 146.603C4581.85 144.924 4588.26 143.068 4594.73 141.319C4599.14 140.129 4612.71 134.361 4614.64 130.505" stroke="black" stroke-width="3" stroke-linecap="round"/>
<path d="M4578.17 76.2934C4574.28 76.2934 4569.05 78.2724 4568.18 82.5309C4567.46 86.0558 4566.35 91.9307 4569.74 94.2751C4575.24 98.082 4585.27 96.9376 4588.01 89.8893C4589.45 86.1809 4591.24 80.5059 4589.35 76.732C4587 72.0262 4582.24 70.1533 4577.32 70.1533C4572.62 70.1533 4569.13 70.3318 4567.2 74.7584C4565.06 79.6805 4565.94 89.2447 4569.84 92.9593C4573.58 96.5293 4578.11 90.974 4580.9 89.0121C4583.99 86.8395 4585.53 82.4242 4586.4 78.9249C4587.67 73.8609 4580.64 72.355 4576.95 73.6619C4575.41 74.2066 4571.36 75.1631 4571.15 77.1706C4570.9 79.5355 4571.48 81.1253 4572.42 83.2619C4574.05 86.9906 4573.95 89.7301 4578.78 88.9878C4581.35 88.5913 4581.15 82.4446 4580.8 80.7035C4579.83 75.8435 4577.72 76.2934 4573.13 76.2934C4571.16 76.2934 4573.81 80.6631 4574.2 81.2639C4575.13 82.7204 4576.74 83.3305 4578.17 84.1878" stroke="black" stroke-width="3" stroke-linecap="round"/>
<path d="M4576.85 71.4691C4576.85 62.1761 4574.21 53.9114 4570.06 45.593C4568.53 42.5502 4563.84 41.3857 4560.63 41.2073C4557.11 41.0117 4553.37 40.3301 4549.88 40.3301C4547.63 40.3301 4543.8 39.5261 4541.77 40.4276C4537.8 42.1925 4532.75 43.6901 4530.71 47.7859C4529.54 50.118 4529.05 51.6371 4529.05 54.3646C4529.05 56.6714 4527.29 57.7477 4527.29 60.0661" stroke="black" stroke-width="3" stroke-linecap="round"/>
<path d="M4523.79 70.5918C4521.85 71.0214 4520.75 74.9755 4520.72 76.6344C4520.67 78.8723 4520.68 81.0459 4521.59 83.0913C4522.39 84.8814 4523.72 86.318 4525.1 87.6963C4525.76 88.3524 4527.71 90.3278 4526.42 90.3278C4524.85 90.3278 4523.29 90.0848 4522.03 91.2049C4521.06 92.0646 4519.74 92.6191 4518.74 91.3999C4516.6 88.7861 4516 83.9873 4515.36 80.7765C4514.89 78.4712 4515.13 77.278 4515.89 75.1725C4517.71 70.1719 4520.97 68.3989 4525.98 68.3989C4530.24 68.3989 4523.86 79.5698 4523.25 81.4588C4522.6 83.4754 4522.47 85.7446 4522.47 87.8669C4522.47 89.4847 4523.01 90.8414 4521.06 90.7664C4517.22 90.6189 4518.52 80.4424 4518.52 77.609" stroke="black" stroke-width="3" stroke-linecap="round"/>
<path d="M4525.1 73.2234C4529.62 73.2234 4533.5 74.2388 4537.82 75.3188C4538.56 75.503 4542.3 75.9361 4542.64 76.5371C4544.17 79.213 4543.66 86.9945 4541.33 89.4507C4538.35 92.5901 4535.14 92.5208 4531.02 92.5208C4526.94 92.5208 4528.11 85.9106 4525.54 84.6264" stroke="black" stroke-width="3" stroke-linecap="round"/>
<path d="M4542.21 76.2935C4546.88 76.2935 4551.66 76.732 4556.24 76.732C4559.66 76.732 4563.11 78.0478 4566.33 78.0478" stroke="black" stroke-width="3" stroke-linecap="round"/>
<path d="M4549.66 77.6091C4549.66 80.6792 4549.66 83.7492 4549.66 86.8192C4549.66 87.8174 4549.3 89.8387 4549.76 90.7664C4551.09 93.4345 4553.06 94.984 4555.9 95.9319C4558.78 96.8911 4561.89 96.6522 4564.67 95.6882C4567.47 94.7204 4567.71 93.6976 4568.96 91.205" stroke="black" stroke-width="3" stroke-linecap="round"/>
<path d="M4557.51 135.374C4565.67 135.374 4575.64 136.609 4580.6 144.044C4584.05 149.225 4583.83 156.897 4583.83 162.87C4583.83 171.598 4571.8 174.985 4565.36 177.619C4562.7 178.709 4559.74 180.158 4556.85 180.158C4555.03 180.158 4553.69 179.697 4551.97 179.697" stroke="black" stroke-width="3" stroke-linecap="round"/>
<path d="M4555.06 137.071C4552.21 139.921 4551.22 144.124 4550.45 147.973C4549.78 151.298 4549.94 155.361 4549.89 158.752C4549.86 161.238 4549.89 163.726 4549.89 166.212" stroke="black" stroke-width="3" stroke-linecap="round"/>
<path d="M4559.95 137.207C4559.95 139.214 4559.64 141.208 4559.64 143.217C4559.62 146.442 4559.32 149.86 4560.22 153C4561.01 155.805 4562.09 158.526 4563.34 161.156C4563.8 162.109 4564.21 163.12 4564.82 163.992C4564.91 164.12 4565.35 164.903 4565.49 164.62" stroke="black" stroke-width="3" stroke-linecap="round"/>
<path d="M5472.91 116.33C5464.07 116.33 5453.08 117.458 5450.05 106.855C5447.82 99.0508 5443.13 91.3952 5443.13 83.2046C5443.13 78.148 5442.76 72.9397 5443.17 67.9016C5443.72 60.9533 5448.59 55.4159 5453.81 51.3577C5463.51 43.8092 5481 42.3211 5490.81 50.3425C5494.96 53.7379 5496.37 58.6145 5499.68 62.5248C5502.82 66.2305 5504.04 70.9172 5504.04 75.7223C5504.04 81.0693 5504.28 86.3598 5503.37 91.627C5502.49 96.6839 5500.14 100.744 5498.78 105.501C5497.07 111.47 5488.88 115.075 5483.4 116.292C5481.04 116.816 5478.39 116.609 5475.99 117.044C5473.58 117.484 5471.41 117.684 5468.85 117.684" stroke="black" stroke-width="3" stroke-linecap="round"/>
<path d="M5474.49 117C5474.49 128.344 5474.49 139.687 5474.49 151.031C5474.49 158.278 5475.27 166.872 5474.31 174.025C5473.44 180.5 5471.32 185.975 5471.32 192.683C5471.32 197.561 5471.24 200.14 5469.73 204.508C5465.16 217.768 5459.83 229.935 5454.68 242.612C5451.63 250.093 5450.63 266 5442.79 266" stroke="black" stroke-width="3" stroke-linecap="round"/>
<path d="M5471.79 193C5471.79 204.534 5472.55 213.861 5475.17 224.461C5476.57 230.13 5478.8 238 5481.25 242.527C5483.56 246.799 5485.73 252.239 5488.57 255.492C5490.87 258.124 5492.14 264.427 5494.79 266" stroke="black" stroke-width="3" stroke-linecap="round"/>
<path d="M5474.03 153.73C5462.97 153.73 5448.74 148.614 5439.5 142.67C5435.2 139.91 5433.53 137.306 5432 132.717" stroke="black" stroke-width="3" stroke-linecap="round"/>
<path d="M5474.03 153.73C5480.82 153.112 5486.79 148.31 5493.38 146.603C5499.85 144.924 5506.26 143.068 5512.73 141.319C5517.14 140.129 5530.71 134.361 5532.64 130.505" stroke="black" stroke-width="3" stroke-linecap="round"/>
<path d="M5496.17 76.2934C5492.28 76.2934 5487.05 78.2724 5486.18 82.5309C5485.46 86.0558 5484.35 91.9307 5487.74 94.2751C5493.24 98.082 5503.27 96.9376 5506.01 89.8893C5507.45 86.1809 5509.24 80.5059 5507.35 76.732C5505 72.0262 5500.24 70.1533 5495.32 70.1533C5490.62 70.1533 5487.13 70.3318 5485.2 74.7584C5483.06 79.6805 5483.94 89.2447 5487.84 92.9593C5491.58 96.5293 5496.11 90.974 5498.9 89.0121C5501.99 86.8395 5503.53 82.4242 5504.4 78.9249C5505.67 73.8609 5498.64 72.355 5494.95 73.6619C5493.41 74.2066 5489.36 75.1631 5489.15 77.1706C5488.9 79.5355 5489.48 81.1253 5490.42 83.2619C5492.05 86.9906 5491.95 89.7301 5496.78 88.9878C5499.35 88.5913 5499.15 82.4446 5498.8 80.7035C5497.83 75.8435 5495.72 76.2934 5491.13 76.2934C5489.16 76.2934 5491.81 80.6631 5492.2 81.2639C5493.13 82.7204 5494.74 83.3305 5496.17 84.1878" stroke="black" stroke-width="3" stroke-linecap="round"/>
<path d="M5494.85 71.4691C5494.85 62.1761 5492.21 53.9114 5488.06 45.593C5486.53 42.5502 5481.84 41.3857 5478.63 41.2073C5475.11 41.0117 5471.37 40.3301 5467.88 40.3301C5465.63 40.3301 5461.8 39.5261 5459.77 40.4276C5455.8 42.1925 5450.75 43.6901 5448.71 47.7859C5447.54 50.118 5447.05 51.6371 5447.05 54.3646C5447.05 56.6714 5445.29 57.7477 5445.29 60.0661" stroke="black" stroke-width="3" stroke-linecap="round"/>
<path d="M5441.79 70.5918C5439.85 71.0214 5438.75 74.9755 5438.72 76.6344C5438.67 78.8723 5438.68 81.0459 5439.59 83.0913C5440.39 84.8814 5441.72 86.318 5443.1 87.6963C5443.76 88.3524 5445.71 90.3278 5444.42 90.3278C5442.85 90.3278 5441.29 90.0848 5440.03 91.2049C5439.06 92.0646 5437.74 92.6191 5436.74 91.3999C5434.6 88.7861 5434 83.9873 5433.36 80.7765C5432.89 78.4712 5433.13 77.278 5433.89 75.1725C5435.71 70.1719 5438.97 68.3989 5443.98 68.3989C5448.24 68.3989 5441.86 79.5698 5441.25 81.4588C5440.6 83.4754 5440.47 85.7446 5440.47 87.8669C5440.47 89.4847 5441.01 90.8414 5439.06 90.7664C5435.22 90.6189 5436.52 80.4424 5436.52 77.609" stroke="black" stroke-width="3" stroke-linecap="round"/>
<path d="M5443.1 73.2234C5447.62 73.2234 5451.5 74.2388 5455.82 75.3188C5456.56 75.503 5460.3 75.9361 5460.64 76.5371C5462.17 79.213 5461.66 86.9945 5459.33 89.4507C5456.35 92.5901 5453.14 92.5208 5449.02 92.5208C5444.94 92.5208 5446.11 85.9106 5443.54 84.6264" stroke="black" stroke-width="3" stroke-linecap="round"/>
<path d="M5460.21 76.2935C5464.88 76.2935 5469.66 76.732 5474.24 76.732C5477.66 76.732 5481.11 78.0478 5484.33 78.0478" stroke="black" stroke-width="3" stroke-linecap="round"/>
<path d="M5467.66 77.6091C5467.66 80.6792 5467.66 83.7492 5467.66 86.8192C5467.66 87.8174 5467.3 89.8387 5467.76 90.7664C5469.09 93.4345 5471.06 94.984 5473.9 95.9319C5476.78 96.8911 5479.89 96.6522 5482.67 95.6882C5485.47 94.7204 5485.71 93.6976 5486.96 91.205" stroke="black" stroke-width="3" stroke-linecap="round"/>
<path d="M5475.51 135.374C5483.67 135.374 5493.64 136.609 5498.6 144.044C5502.05 149.225 5501.83 156.897 5501.83 162.87C5501.83 171.598 5489.8 174.985 5483.36 177.619C5480.7 178.709 5477.74 180.158 5474.85 180.158C5473.03 180.158 5471.69 179.697 5469.97 179.697" stroke="black" stroke-width="3" stroke-linecap="round"/>
<path d="M5473.06 137.071C5470.21 139.921 5469.22 144.124 5468.45 147.973C5467.78 151.298 5467.94 155.361 5467.89 158.752C5467.86 161.238 5467.89 163.726 5467.89 166.212" stroke="black" stroke-width="3" stroke-linecap="round"/>
<path d="M5477.95 137.207C5477.95 139.214 5477.64 141.208 5477.64 143.217C5477.62 146.442 5477.32 149.86 5478.22 153C5479.01 155.805 5480.09 158.526 5481.34 161.156C5481.8 162.109 5482.21 163.12 5482.82 163.992C5482.91 164.12 5483.35 164.903 5483.49 164.62" stroke="black" stroke-width="3" stroke-linecap="round"/>
<path d="M1341.91 117.33C1333.07 117.33 1322.08 118.458 1319.05 107.855C1316.82 100.051 1312.13 92.3952 1312.13 84.2046C1312.13 79.148 1311.76 73.9397 1312.17 68.9016C1312.72 61.9533 1317.59 56.4159 1322.81 52.3577C1332.51 44.8092 1350 43.3211 1359.81 51.3425C1363.96 54.7379 1365.37 59.6145 1368.68 63.5248C1371.82 67.2305 1373.04 71.9172 1373.04 76.7223C1373.04 82.0693 1373.28 87.3598 1372.36 92.627C1371.49 97.6839 1369.14 101.744 1367.78 106.501C1366.07 112.47 1357.88 116.075 1352.4 117.292C1350.04 117.816 1347.39 117.609 1344.99 118.044C1342.58 118.484 1340.41 118.684 1337.85 118.684" stroke="black" stroke-width="3" stroke-linecap="round"/>
<path d="M1343.75 118C1343.75 129.344 1343.75 140.687 1343.75 152.031C1343.75 159.278 1344.41 167.872 1343.6 175.025C1342.86 181.5 1341.07 186.975 1341.07 193.683C1341.07 198.561 1341 201.14 1339.73 205.508C1337.54 213 1336.48 221.165 1333.61 237C1332.34 244 1330.65 255 1326 268" stroke="black" stroke-width="3" stroke-linecap="round"/>
<path d="M1342 181C1342 194.588 1342.43 205.576 1343.91 218.064C1344.71 224.742 1345.96 234.013 1347.35 239.347C1348.66 244.379 1349.88 250.789 1351.49 254.621C1352.79 257.721 1353.5 265.147 1355 267" stroke="black" stroke-width="3" stroke-linecap="round"/>
<path d="M1343.03 154.73C1331.97 154.73 1317.74 149.614 1308.5 143.67C1304.2 140.91 1302.53 138.306 1301 133.717" stroke="black" stroke-width="3" stroke-linecap="round"/>
<path d="M1343.03 154.73C1349.82 154.112 1355.79 149.31 1362.38 147.603C1368.85 145.924 1375.26 144.068 1381.73 142.319C1386.14 141.129 1399.71 135.361 1401.64 131.505" stroke="black" stroke-width="3" stroke-linecap="round"/>
<path d="M1365.17 77.2934C1361.28 77.2934 1356.05 79.2724 1355.18 83.5309C1354.46 87.0558 1353.35 92.9307 1356.74 95.2751C1362.24 99.082 1372.27 97.9376 1375.01 90.8893C1376.46 87.1809 1378.24 81.5059 1376.35 77.732C1374 73.0262 1369.24 71.1533 1364.32 71.1533C1359.62 71.1533 1356.13 71.3318 1354.2 75.7584C1352.06 80.6805 1352.94 90.2447 1356.84 93.9593C1360.58 97.5293 1365.11 91.974 1367.9 90.0121C1370.99 87.8395 1372.53 83.4242 1373.4 79.9249C1374.67 74.8609 1367.64 73.355 1363.95 74.6619C1362.41 75.2066 1358.36 76.1631 1358.15 78.1706C1357.9 80.5355 1358.48 82.1253 1359.42 84.2619C1361.05 87.9906 1360.95 90.7301 1365.78 89.9878C1368.36 89.5913 1368.15 83.4446 1367.8 81.7035C1366.83 76.8435 1364.72 77.2934 1360.13 77.2934C1358.16 77.2934 1360.81 81.6631 1361.2 82.2639C1362.13 83.7204 1363.74 84.3305 1365.17 85.1878" stroke="black" stroke-width="3" stroke-linecap="round"/>
<path d="M1363.85 72.4691C1363.85 63.1761 1361.21 54.9114 1357.06 46.593C1355.53 43.5502 1350.84 42.3857 1347.63 42.2073C1344.11 42.0117 1340.37 41.3301 1336.88 41.3301C1334.63 41.3301 1330.8 40.5261 1328.77 41.4276C1324.8 43.1925 1319.75 44.6901 1317.71 48.7859C1316.54 51.118 1316.05 52.6371 1316.05 55.3646C1316.05 57.6714 1314.29 58.7477 1314.29 61.0661" stroke="black" stroke-width="3" stroke-linecap="round"/>
<path d="M1310.79 71.5918C1308.85 72.0214 1307.75 75.9755 1307.72 77.6344C1307.67 79.8723 1307.68 82.0459 1308.59 84.0913C1309.39 85.8814 1310.72 87.318 1312.1 88.6963C1312.76 89.3524 1314.71 91.3278 1313.42 91.3278C1311.85 91.3278 1310.29 91.0848 1309.03 92.2049C1308.06 93.0646 1306.74 93.6191 1305.74 92.3999C1303.6 89.7861 1303 84.9873 1302.36 81.7765C1301.89 79.4712 1302.13 78.278 1302.89 76.1725C1304.71 71.1719 1307.97 69.3989 1312.98 69.3989C1317.24 69.3989 1310.86 80.5698 1310.25 82.4588C1309.6 84.4754 1309.47 86.7446 1309.47 88.8669C1309.47 90.4847 1310.01 91.8414 1308.06 91.7664C1304.22 91.6189 1305.52 81.4424 1305.52 78.609" stroke="black" stroke-width="3" stroke-linecap="round"/>
<path d="M1312.1 74.2234C1316.62 74.2234 1320.5 75.2388 1324.82 76.3188C1325.56 76.503 1329.3 76.9361 1329.64 77.5371C1331.17 80.213 1330.66 87.9945 1328.33 90.4507C1325.35 93.5901 1322.14 93.5208 1318.02 93.5208C1313.93 93.5208 1315.11 86.9106 1312.54 85.6264" stroke="black" stroke-width="3" stroke-linecap="round"/>
<path d="M1329.21 77.2935C1333.88 77.2935 1338.66 77.732 1343.24 77.732C1346.66 77.732 1350.11 79.0478 1353.33 79.0478" stroke="black" stroke-width="3" stroke-linecap="round"/>
<path d="M1336.66 78.6091C1336.66 81.6792 1336.66 84.7492 1336.66 87.8192C1336.66 88.8174 1336.3 90.8387 1336.76 91.7664C1338.09 94.4345 1340.06 95.984 1342.9 96.9319C1345.78 97.8911 1348.89 97.6522 1351.67 96.6882C1354.47 95.7204 1354.71 94.6976 1355.96 92.205" stroke="black" stroke-width="3" stroke-linecap="round"/>
<path d="M1344.51 136.374C1352.67 136.374 1362.64 137.609 1367.6 145.044C1371.05 150.225 1370.83 157.897 1370.83 163.87C1370.83 172.598 1358.8 175.985 1352.36 178.619C1349.7 179.709 1346.74 181.158 1343.85 181.158C1342.03 181.158 1340.69 180.697 1338.97 180.697" stroke="black" stroke-width="3" stroke-linecap="round"/>
<path d="M1342.06 138.071C1339.21 140.921 1338.22 145.124 1337.45 148.973C1336.78 152.298 1336.94 156.361 1336.89 159.752C1336.86 162.238 1336.89 164.726 1336.89 167.212" stroke="black" stroke-width="3" stroke-linecap="round"/>
<path d="M1346.95 138.207C1346.95 140.214 1346.64 142.208 1346.64 144.217C1346.62 147.442 1346.32 150.86 1347.22 154C1348.01 156.805 1349.09 159.526 1350.34 162.156C1350.8 163.109 1351.21 164.12 1351.82 164.992C1351.91 165.12 1352.35 165.903 1352.49 165.62" stroke="black" stroke-width="3" stroke-linecap="round"/>
<path d="M3186.91 117.33C3178.07 117.33 3167.08 118.458 3164.05 107.855C3161.82 100.051 3157.13 92.3952 3157.13 84.2046C3157.13 79.148 3156.76 73.9397 3157.17 68.9016C3157.72 61.9533 3162.59 56.4159 3167.81 52.3577C3177.51 44.8092 3195 43.3211 3204.81 51.3425C3208.96 54.7379 3210.37 59.6145 3213.68 63.5248C3216.82 67.2305 3218.04 71.9172 3218.04 76.7223C3218.04 82.0693 3218.28 87.3598 3217.36 92.627C3216.49 97.6839 3214.14 101.744 3212.78 106.501C3211.07 112.47 3202.88 116.075 3197.4 117.292C3195.04 117.816 3192.39 117.609 3189.99 118.044C3187.58 118.484 3185.41 118.684 3182.85 118.684" stroke="black" stroke-width="3" stroke-linecap="round"/>
<path d="M3188.75 118C3188.75 129.344 3188.75 140.687 3188.75 152.031C3188.75 159.278 3189.41 167.872 3188.6 175.025C3187.86 181.5 3186.07 186.975 3186.07 193.683C3186.07 198.561 3186 201.14 3184.73 205.508C3182.54 213 3181.48 221.165 3178.61 237C3177.34 244 3175.65 255 3171 268" stroke="black" stroke-width="3" stroke-linecap="round"/>
<path d="M3187 181C3187 194.588 3187.43 205.576 3188.91 218.064C3189.71 224.742 3190.96 234.013 3192.35 239.347C3193.66 244.379 3194.88 250.789 3196.49 254.621C3197.79 257.721 3198.5 265.147 3200 267" stroke="black" stroke-width="3" stroke-linecap="round"/>
<path d="M3188.03 154.73C3176.97 154.73 3162.74 149.614 3153.5 143.67C3149.2 140.91 3147.53 138.306 3146 133.717" stroke="black" stroke-width="3" stroke-linecap="round"/>
<path d="M3188.03 154.73C3194.82 154.112 3200.79 149.31 3207.38 147.603C3213.85 145.924 3220.26 144.068 3226.73 142.319C3231.14 141.129 3244.71 135.361 3246.64 131.505" stroke="black" stroke-width="3" stroke-linecap="round"/>
<path d="M3210.17 77.2934C3206.28 77.2934 3201.05 79.2724 3200.18 83.5309C3199.46 87.0558 3198.35 92.9307 3201.74 95.2751C3207.24 99.082 3217.27 97.9376 3220.01 90.8893C3221.46 87.1809 3223.24 81.5059 3221.35 77.732C3219 73.0262 3214.24 71.1533 3209.32 71.1533C3204.62 71.1533 3201.13 71.3318 3199.2 75.7584C3197.06 80.6805 3197.94 90.2447 3201.84 93.9593C3205.58 97.5293 3210.11 91.974 3212.9 90.0121C3215.99 87.8395 3217.53 83.4242 3218.4 79.9249C3219.67 74.8609 3212.64 73.355 3208.95 74.6619C3207.41 75.2066 3203.36 76.1631 3203.15 78.1706C3202.9 80.5355 3203.48 82.1253 3204.42 84.2619C3206.05 87.9906 3205.95 90.7301 3210.78 89.9878C3213.36 89.5913 3213.15 83.4446 3212.8 81.7035C3211.83 76.8435 3209.72 77.2934 3205.13 77.2934C3203.16 77.2934 3205.81 81.6631 3206.2 82.2639C3207.13 83.7204 3208.74 84.3305 3210.17 85.1878" stroke="black" stroke-width="3" stroke-linecap="round"/>
<path d="M3208.85 72.4691C3208.85 63.1761 3206.21 54.9114 3202.06 46.593C3200.53 43.5502 3195.84 42.3857 3192.63 42.2073C3189.11 42.0117 3185.37 41.3301 3181.88 41.3301C3179.63 41.3301 3175.8 40.5261 3173.77 41.4276C3169.8 43.1925 3164.75 44.6901 3162.71 48.7859C3161.54 51.118 3161.05 52.6371 3161.05 55.3646C3161.05 57.6714 3159.29 58.7477 3159.29 61.0661" stroke="black" stroke-width="3" stroke-linecap="round"/>
<path d="M3155.79 71.5918C3153.85 72.0214 3152.75 75.9755 3152.72 77.6344C3152.67 79.8723 3152.68 82.0459 3153.59 84.0913C3154.39 85.8814 3155.72 87.318 3157.1 88.6963C3157.76 89.3524 3159.71 91.3278 3158.42 91.3278C3156.85 91.3278 3155.29 91.0848 3154.03 92.2049C3153.06 93.0646 3151.74 93.6191 3150.74 92.3999C3148.6 89.7861 3148 84.9873 3147.36 81.7765C3146.89 79.4712 3147.13 78.278 3147.89 76.1725C3149.71 71.1719 3152.97 69.3989 3157.98 69.3989C3162.24 69.3989 3155.86 80.5698 3155.25 82.4588C3154.6 84.4754 3154.47 86.7446 3154.47 88.8669C3154.47 90.4847 3155.01 91.8414 3153.06 91.7664C3149.22 91.6189 3150.52 81.4424 3150.52 78.609" stroke="black" stroke-width="3" stroke-linecap="round"/>
<path d="M3157.1 74.2234C3161.62 74.2234 3165.5 75.2388 3169.82 76.3188C3170.56 76.503 3174.3 76.9361 3174.64 77.5371C3176.17 80.213 3175.66 87.9945 3173.33 90.4507C3170.35 93.5901 3167.14 93.5208 3163.02 93.5208C3158.93 93.5208 3160.11 86.9106 3157.54 85.6264" stroke="black" stroke-width="3" stroke-linecap="round"/>
<path d="M3174.21 77.2935C3178.88 77.2935 3183.66 77.732 3188.24 77.732C3191.66 77.732 3195.11 79.0478 3198.33 79.0478" stroke="black" stroke-width="3" stroke-linecap="round"/>
<path d="M3181.66 78.6091C3181.66 81.6792 3181.66 84.7492 3181.66 87.8192C3181.66 88.8174 3181.3 90.8387 3181.76 91.7664C3183.09 94.4345 3185.06 95.984 3187.9 96.9319C3190.78 97.8911 3193.89 97.6522 3196.67 96.6882C3199.47 95.7204 3199.71 94.6976 3200.96 92.205" stroke="black" stroke-width="3" stroke-linecap="round"/>
<path d="M3189.51 136.374C3197.67 136.374 3207.64 137.609 3212.6 145.044C3216.05 150.225 3215.83 157.897 3215.83 163.87C3215.83 172.598 3203.8 175.985 3197.36 178.619C3194.7 179.709 3191.74 181.158 3188.85 181.158C3187.03 181.158 3185.69 180.697 3183.97 180.697" stroke="black" stroke-width="3" stroke-linecap="round"/>
<path d="M3187.06 138.071C3184.21 140.921 3183.22 145.124 3182.45 148.973C3181.78 152.298 3181.94 156.361 3181.89 159.752C3181.86 162.238 3181.89 164.726 3181.89 167.212" stroke="black" stroke-width="3" stroke-linecap="round"/>
<path d="M3191.95 138.207C3191.95 140.214 3191.64 142.208 3191.64 144.217C3191.62 147.442 3191.32 150.86 3192.22 154C3193.01 156.805 3194.09 159.526 3195.34 162.156C3195.8 163.109 3196.21 164.12 3196.82 164.992C3196.91 165.12 3197.35 165.903 3197.49 165.62" stroke="black" stroke-width="3" stroke-linecap="round"/>
<path d="M5013.91 117.33C5005.07 117.33 4994.08 118.458 4991.05 107.855C4988.82 100.051 4984.13 92.3952 4984.13 84.2046C4984.13 79.148 4983.76 73.9397 4984.17 68.9016C4984.72 61.9533 4989.59 56.4159 4994.81 52.3577C5004.51 44.8092 5022 43.3211 5031.81 51.3425C5035.96 54.7379 5037.37 59.6145 5040.68 63.5248C5043.82 67.2305 5045.04 71.9172 5045.04 76.7223C5045.04 82.0693 5045.28 87.3598 5044.37 92.627C5043.49 97.6839 5041.14 101.744 5039.78 106.501C5038.07 112.47 5029.88 116.075 5024.4 117.292C5022.04 117.816 5019.39 117.609 5016.99 118.044C5014.58 118.484 5012.41 118.684 5009.85 118.684" stroke="black" stroke-width="3" stroke-linecap="round"/>
<path d="M5015.75 118C5015.75 129.344 5015.75 140.687 5015.75 152.031C5015.75 159.278 5016.41 167.872 5015.6 175.025C5014.86 181.5 5013.07 186.975 5013.07 193.683C5013.07 198.561 5013 201.14 5011.73 205.508C5009.54 213 5008.48 221.165 5005.61 237C5004.34 244 5002.65 255 4998 268" stroke="black" stroke-width="3" stroke-linecap="round"/>
<path d="M5014 181C5014 194.588 5014.43 205.576 5015.91 218.064C5016.71 224.742 5017.96 234.013 5019.35 239.347C5020.66 244.379 5021.88 250.789 5023.49 254.621C5024.79 257.721 5025.5 265.147 5027 267" stroke="black" stroke-width="3" stroke-linecap="round"/>
<path d="M5015.03 154.73C5003.97 154.73 4989.74 149.614 4980.5 143.67C4976.2 140.91 4974.53 138.306 4973 133.717" stroke="black" stroke-width="3" stroke-linecap="round"/>
<path d="M5015.03 154.73C5021.82 154.112 5027.79 149.31 5034.38 147.603C5040.85 145.924 5047.26 144.068 5053.73 142.319C5058.14 141.129 5071.71 135.361 5073.64 131.505" stroke="black" stroke-width="3" stroke-linecap="round"/>
<path d="M5037.17 77.2934C5033.28 77.2934 5028.05 79.2724 5027.18 83.5309C5026.46 87.0558 5025.35 92.9307 5028.74 95.2751C5034.24 99.082 5044.27 97.9376 5047.01 90.8893C5048.45 87.1809 5050.24 81.5059 5048.35 77.732C5046 73.0262 5041.24 71.1533 5036.32 71.1533C5031.62 71.1533 5028.13 71.3318 5026.2 75.7584C5024.06 80.6805 5024.94 90.2447 5028.84 93.9593C5032.58 97.5293 5037.11 91.974 5039.9 90.0121C5042.99 87.8395 5044.53 83.4242 5045.4 79.9249C5046.67 74.8609 5039.64 73.355 5035.95 74.6619C5034.41 75.2066 5030.36 76.1631 5030.15 78.1706C5029.9 80.5355 5030.48 82.1253 5031.42 84.2619C5033.05 87.9906 5032.95 90.7301 5037.78 89.9878C5040.35 89.5913 5040.15 83.4446 5039.8 81.7035C5038.83 76.8435 5036.72 77.2934 5032.13 77.2934C5030.16 77.2934 5032.81 81.6631 5033.2 82.2639C5034.13 83.7204 5035.74 84.3305 5037.17 85.1878" stroke="black" stroke-width="3" stroke-linecap="round"/>
<path d="M5035.85 72.4691C5035.85 63.1761 5033.21 54.9114 5029.06 46.593C5027.53 43.5502 5022.84 42.3857 5019.63 42.2073C5016.11 42.0117 5012.37 41.3301 5008.88 41.3301C5006.63 41.3301 5002.8 40.5261 5000.77 41.4276C4996.8 43.1925 4991.75 44.6901 4989.71 48.7859C4988.54 51.118 4988.05 52.6371 4988.05 55.3646C4988.05 57.6714 4986.29 58.7477 4986.29 61.0661" stroke="black" stroke-width="3" stroke-linecap="round"/>
<path d="M4982.79 71.5918C4980.85 72.0214 4979.75 75.9755 4979.72 77.6344C4979.67 79.8723 4979.68 82.0459 4980.59 84.0913C4981.39 85.8814 4982.72 87.318 4984.1 88.6963C4984.76 89.3524 4986.71 91.3278 4985.42 91.3278C4983.85 91.3278 4982.29 91.0848 4981.03 92.2049C4980.06 93.0646 4978.74 93.6191 4977.74 92.3999C4975.6 89.7861 4975 84.9873 4974.36 81.7765C4973.89 79.4712 4974.13 78.278 4974.89 76.1725C4976.71 71.1719 4979.97 69.3989 4984.98 69.3989C4989.24 69.3989 4982.86 80.5698 4982.25 82.4588C4981.6 84.4754 4981.47 86.7446 4981.47 88.8669C4981.47 90.4847 4982.01 91.8414 4980.06 91.7664C4976.22 91.6189 4977.52 81.4424 4977.52 78.609" stroke="black" stroke-width="3" stroke-linecap="round"/>
<path d="M4984.1 74.2234C4988.62 74.2234 4992.5 75.2388 4996.82 76.3188C4997.56 76.503 5001.3 76.9361 5001.64 77.5371C5003.17 80.213 5002.66 87.9945 5000.33 90.4507C4997.35 93.5901 4994.14 93.5208 4990.02 93.5208C4985.94 93.5208 4987.11 86.9106 4984.54 85.6264" stroke="black" stroke-width="3" stroke-linecap="round"/>
<path d="M5001.21 77.2935C5005.88 77.2935 5010.66 77.732 5015.24 77.732C5018.66 77.732 5022.11 79.0478 5025.33 79.0478" stroke="black" stroke-width="3" stroke-linecap="round"/>
<path d="M5008.66 78.6091C5008.66 81.6792 5008.66 84.7492 5008.66 87.8192C5008.66 88.8174 5008.3 90.8387 5008.76 91.7664C5010.09 94.4345 5012.06 95.984 5014.9 96.9319C5017.78 97.8911 5020.89 97.6522 5023.67 96.6882C5026.47 95.7204 5026.71 94.6976 5027.96 92.205" stroke="black" stroke-width="3" stroke-linecap="round"/>
<path d="M5016.51 136.374C5024.67 136.374 5034.64 137.609 5039.6 145.044C5043.05 150.225 5042.83 157.897 5042.83 163.87C5042.83 172.598 5030.8 175.985 5024.36 178.619C5021.7 179.709 5018.74 181.158 5015.85 181.158C5014.03 181.158 5012.69 180.697 5010.97 180.697" stroke="black" stroke-width="3" stroke-linecap="round"/>
<path d="M5014.06 138.071C5011.21 140.921 5010.22 145.124 5009.45 148.973C5008.78 152.298 5008.94 156.361 5008.89 159.752C5008.86 162.238 5008.89 164.726 5008.89 167.212" stroke="black" stroke-width="3" stroke-linecap="round"/>
<path d="M5018.95 138.207C5018.95 140.214 5018.64 142.208 5018.64 144.217C5018.62 147.442 5018.32 150.86 5019.22 154C5020.01 156.805 5021.09 159.526 5022.34 162.156C5022.8 163.109 5023.21 164.12 5023.82 164.992C5023.91 165.12 5024.35 165.903 5024.49 165.62" stroke="black" stroke-width="3" stroke-linecap="round"/>
</svg>
