<svg width="722" height="432" viewBox="0 0 722 432" fill="none" xmlns="http://www.w3.org/2000/svg">
<path d="M98.2821 184.232C69.4051 198.74 30.9805 208.588 0.480462 209.356C27.109 214.101 51.9937 225.323 72.9691 240.213C94.022 255.159 109.72 275.835 127.97 292.941C148.053 311.765 172.638 324.676 197.33 339.069C208.359 345.498 216.903 354.117 225.517 362.549C234.852 371.687 249.326 378.129 261.671 384.396C286.522 397.011 313.376 404.492 340.7 413.507C366.557 422.038 392.121 425.443 420.32 428.681C446.902 431.733 465.585 428.34 491.242 421.358C532.78 410.055 574.255 403.836 610.282 380.199C646.088 356.707 681.217 321.224 701.583 287.836C722.512 253.526 723.488 223.552 715.841 188.508C704.199 135.157 671.204 84.107 622.359 48.9874C602.583 34.7685 583.589 19.5379 559.644 9.72661C542.014 2.50255 524.455 1.90481 504.196 2.80507C444.246 5.469 415.903 7.92786 357 20C322.584 27.0536 262.873 50.6209 237.451 73.0173C216.057 91.8648 196.785 112.315 175.265 131.07C152.409 150.99 126.798 169.906 98.2821 184.232Z" stroke="black" stroke-width="3" stroke-linecap="round"/>
</svg>
