<svg width="812" height="628" viewBox="0 0 812 628" fill="none" xmlns="http://www.w3.org/2000/svg">
<path d="M124.068 65.6849C120.89 65.6849 117.522 65.3573 114.411 66.1034C110.427 67.059 106.016 69.0541 102.683 71.5253C98.3759 74.7178 93.8795 79.9149 92.9306 85.3748C92.2598 89.2351 91.407 94.3908 92.5885 98.2161C93.7851 102.091 95.6717 105.746 98.0822 109.003C99.5911 111.041 101.615 112.645 103.12 114.653C104.991 117.15 106.728 118.591 109.716 119.637C113.737 121.046 119.135 121.221 123.365 120.798C130.025 120.131 136.049 113.391 139.466 108.071C141.679 104.626 141.177 100.799 141.177 96.8464C141.177 95.0526 140.946 92.1308 141.69 90.4923C142.668 88.3403 141.113 84.8714 140.074 83.0729C138.644 80.595 137.733 77.6483 135.702 75.6155C134.321 74.2334 132.252 73.3904 131.083 71.8297C130.212 70.668 129.247 69.4373 128.326 68.2531C126.357 65.7188 122.726 65 119.62 65" stroke="black" stroke-width="3" stroke-linecap="round"/>
<path d="M139.303 95.2237C136.568 95.5309 134.472 97.1437 131.738 95.5644C131.041 95.1619 130.262 93.6923 129.865 92.9898C128.868 91.2262 129.078 92.8891 127.674 93.5198C124.279 95.0451 112 102.586 112 93.8606C112 91.3294 112.98 89.1763 113.33 86.7045C113.583 84.9123 114.488 85.0007 116.064 85.0007C119.203 85.0007 122.343 85.0007 125.483 85.0007C129.134 85.0007 132.619 85.6822 136.27 85.6822C138.633 85.6822 141.113 85.3785 142 88.0676" stroke="black" stroke-width="3" stroke-linecap="round"/>
<path d="M139.97 88.4099C139.97 89.7584 140.288 94.5721 138.846 94.9498C138.288 95.0958 137.793 86.4452 138.4 85.3024C138.63 84.8671 138.58 84.2073 138.031 84.0432C136.786 83.6706 136.368 85.8075 136.131 86.6632C135.625 88.488 135.814 93.2816 134.211 94.6249C133.081 95.5717 131.976 87.8541 131.942 86.582C131.933 86.2316 132.154 84.735 131.865 84.4697C131.581 84.2095 131.593 85.4347 131.593 85.4852C131.593 86.5328 131.332 87.5318 131.264 88.5724C131.196 89.6005 131.596 91.2367 131.225 92.2079C131.161 92.3758 128.646 90.0759 128.452 89.8722C127.721 89.1066 126.602 88.2729 126.086 87.3131C125.912 86.9891 125.676 89.0967 125.64 89.5067C125.562 90.4132 125.53 91.7174 125.291 92.5938C125.235 92.8009 123.592 88.2474 123.41 87.5366C123.093 86.2976 122.518 83.6693 122.518 86.3992C122.518 88.1727 122.557 89.8742 122.247 91.6189C122.029 92.8477 121.977 92.7741 121.122 93.5281C119.05 95.3562 118.353 90.5739 118.175 89.4254C117.834 87.234 117.81 87.4111 118.155 89.3645C118.488 91.2473 118.679 93.4352 118.679 95.356C118.679 98.8089 117.283 91.8905 117.283 90.8065C117.283 89.7321 117.301 88.5504 116.914 87.5366C116.557 86.6004 116.046 89.336 115.615 90.2378C114.494 92.586 112.047 95.7695 112.047 98.4635C112.047 101.109 111 93.2488 111 90.6034" stroke="black" stroke-width="3" stroke-linecap="round"/>
<path d="M113.809 84.661C110.844 84.661 107.879 84.661 104.914 84.661C103.636 84.661 102.36 84.0693 101.123 84.0034C99.9282 83.9397 99.874 84.7765 100.114 85.8118C100.301 86.6191 100.2 88.0644 100.609 88.7711C102.163 91.4526 106.225 88.9599 108.495 88.6249C109.683 88.4496 110.689 87.9044 111.752 87.3645C112.493 86.9883 114.648 85.9762 113.809 85.9762" stroke="black" stroke-width="3" stroke-linecap="round"/>
<path d="M105.187 87.1779C104.164 87.1779 101.396 86.7776 102.119 87.1779C103.003 87.6672 105.618 87.6706 106.781 87.7735C108.47 87.9232 110.467 88.198 112 87.7735" stroke="black" stroke-width="3" stroke-linecap="round"/>
<path d="M118.683 123C118.683 134.675 118.031 146.535 118.753 158.187C118.991 162.016 120.727 166.435 119.652 170.173C119.385 171.101 119.488 172.332 119.317 173.31C119.131 174.373 118.683 175.4 118.683 176.481C118.683 183.177 115.919 190.236 113.923 196.563C111.078 205.583 105.406 213.669 100.349 221.586C97.5416 225.982 95.5486 230.397 93.6154 235.22C92.6041 237.742 91.7751 240.382 90.3013 242.685C89.8776 243.346 89.7353 244.201 89.4727 244.963C88.7675 247.008 87.587 248.851 86.9519 250.903C86.302 253.003 86 255.822 86 258" stroke="black" stroke-width="3" stroke-linecap="round"/>
<path d="M119 181C119.885 181.088 120.431 181.965 120.973 182.57C122.769 184.575 124.162 186.619 125.447 188.99C127.995 193.69 129.948 198.727 132.159 203.591C134.222 208.132 136.599 212.7 137.672 217.599C139.125 224.236 139.029 231.553 138.976 238.323C138.924 244.914 137.39 251.461 137.39 258.07C137.39 258.815 137.39 259.559 137.39 260.303C137.39 260.639 137.707 262.777 137.707 261.699" stroke="black" stroke-width="3" stroke-linecap="round"/>
<path d="M118 126C115.575 134.485 109.843 141.698 107.411 150.251C106.366 153.923 107.201 157.927 104.982 161.09C103.814 162.756 102.693 164.649 101.929 166.536C101.409 167.819 100.973 169.054 100.571 170.343C100.41 170.862 100.437 171.785 100 172" stroke="black" stroke-width="3" stroke-linecap="round"/>
<path d="M119 126C119 129.844 119.555 132.367 121.283 135.871C122.881 139.114 126.075 141.929 127.333 145.247C128.578 148.53 130.038 151.91 133.348 153.526C135.823 154.735 137.563 153.44 139.543 151.793C143.049 148.876 146.966 146.279 150.304 143.195C153.071 140.639 159.892 136.19 164 136.19" stroke="black" stroke-width="3" stroke-linecap="round"/>
<path d="M164.054 121.168C164.054 126.449 163.731 131.884 164.24 137.143C164.355 138.336 164.702 139.547 164.933 140.725C165.324 142.721 165.46 144.789 165.46 146.821C165.46 147.155 165.262 148.541 165.548 148.778C166.071 149.211 167.085 148.918 167.657 148.677C169.203 148.026 170.45 146.775 172.051 146.407C173.98 145.964 173.72 143.217 173.72 141.654C173.72 138.809 173.7 135.984 173.896 133.147C174.09 130.334 174.561 127.543 174.853 124.741C174.982 123.506 175.188 122.123 174.638 120.987C174.202 120.086 172.367 120.186 171.572 120.119C168.744 119.878 165.842 120.078 163 120.078" stroke="black" stroke-width="3" stroke-linecap="round"/>
<path d="M163.714 119.025C163.562 117.491 162.9 116.14 163.013 114.537C163.117 113.061 163.831 111.438 164.425 110.089C165.215 108.292 167.928 106.84 169.757 106.378C171.987 105.815 174.915 105.692 176.68 107.356C177.95 108.554 178.737 110.004 178.961 111.724C179.244 113.906 177.919 115.368 177.401 117.33C177.127 118.367 176.811 119.242 176.018 119.963C175.594 120.348 174.939 121 174.379 121" stroke="black" stroke-width="3" stroke-linecap="round"/>
<path d="M167 152C168.798 152 170.677 151.001 172.192 150.093C172.63 149.831 174.534 148.353 175 149.33" stroke="black" stroke-width="3" stroke-linecap="round"/>
<path d="M40.0682 66.6849C36.8899 66.6849 33.5221 66.3573 30.4114 67.1034C26.4274 68.059 22.0161 70.0541 18.6825 72.5253C14.3759 75.7178 9.87946 80.9149 8.93064 86.3748C8.25979 90.2351 7.40701 95.3908 8.58847 99.2161C9.78511 103.091 11.6717 106.746 14.0822 110.003C15.5911 112.041 17.6148 113.645 19.1197 115.653C20.9914 118.15 22.7277 119.591 25.716 120.637C29.7373 122.046 35.1354 122.221 39.3649 121.798C46.025 121.131 52.0486 114.391 55.466 109.071C57.6786 105.626 57.1768 101.799 57.1768 97.8464C57.1768 96.0526 56.9459 93.1308 57.6901 91.4923C58.6675 89.3403 57.1126 85.8714 56.0743 84.0729C54.6437 81.595 53.7334 78.6483 51.7021 76.6155C50.3211 75.2334 48.2524 74.3904 47.0828 72.8297C46.2122 71.668 45.2467 70.4373 44.3264 69.2531C42.3568 66.7188 38.7256 66 35.62 66" stroke="black" stroke-width="3" stroke-linecap="round"/>
<path d="M55.3034 96.2237C52.5683 96.5309 50.4716 98.1437 47.7378 96.5644C47.0411 96.1619 46.2623 94.6923 45.8652 93.9898C44.8683 92.2262 45.078 93.8891 43.6742 94.5198C40.2793 96.0451 28 103.586 28 94.8606C28 92.3294 28.9803 90.1763 29.3296 87.7045C29.5829 85.9123 30.488 86.0007 32.0637 86.0007C35.2035 86.0007 38.3433 86.0007 41.4831 86.0007C45.1342 86.0007 48.6186 86.6822 52.2697 86.6822C54.6333 86.6822 57.1133 86.3785 58 89.0676" stroke="black" stroke-width="3" stroke-linecap="round"/>
<path d="M55.9703 89.4099C55.9703 90.7584 56.2881 95.5721 54.8456 95.9498C54.288 96.0958 53.7935 87.4452 54.3996 86.3024C54.6305 85.8671 54.5797 85.2073 54.0312 85.0432C52.7863 84.6706 52.368 86.8075 52.1308 87.6632C51.625 89.488 51.8142 94.2816 50.2111 95.6249C49.0812 96.5717 47.9761 88.8541 47.9424 87.582C47.9331 87.2316 48.1543 85.735 47.8648 85.4697C47.5809 85.2095 47.5933 86.4347 47.5933 86.4852C47.5933 87.5328 47.3322 88.5318 47.2637 89.5724C47.196 90.6005 47.5958 92.2367 47.2249 93.2079C47.1608 93.3758 44.6464 91.0759 44.452 90.8722C43.721 90.1066 42.6017 89.2729 42.0863 88.3131C41.9122 87.9891 41.6758 90.0967 41.6403 90.5067C41.5616 91.4132 41.5303 92.7174 41.2912 93.5938C41.2347 93.8009 39.5924 89.2474 39.4103 88.5366C39.0929 87.2976 38.5183 84.6693 38.5183 87.3992C38.5183 89.1727 38.5567 90.8742 38.2468 92.6189C38.0286 93.8477 37.977 93.7741 37.1221 94.5281C35.0495 96.3562 34.3532 91.5739 34.1747 90.4254C33.8341 88.234 33.8099 88.4111 34.1553 90.3645C34.4882 92.2473 34.6789 94.4352 34.6789 96.356C34.6789 99.8089 33.2827 92.8905 33.2827 91.8065C33.2827 90.7321 33.3015 89.5504 32.9143 88.5366C32.5568 87.6004 32.0456 90.336 31.6151 91.2378C30.4941 93.586 28.0471 96.7695 28.0471 99.4635C28.0471 102.109 27 94.2488 27 91.6034" stroke="black" stroke-width="3" stroke-linecap="round"/>
<path d="M29.8093 85.661C26.8442 85.661 23.8791 85.661 20.9139 85.661C19.6358 85.661 18.36 85.0693 17.1234 85.0034C15.9282 84.9397 15.874 85.7765 16.1139 86.8118C16.3009 87.6191 16.1997 89.0644 16.6091 89.7711C18.1625 92.4526 22.2245 89.9599 24.495 89.6249C25.6833 89.4496 26.6888 88.9044 27.7522 88.3645C28.4932 87.9883 30.6478 86.9762 29.8093 86.9762" stroke="black" stroke-width="3" stroke-linecap="round"/>
<path d="M21.1869 88.1779C20.1642 88.1779 17.3958 87.7776 18.1189 88.1779C19.0026 88.6672 21.6182 88.6706 22.7806 88.7735C24.4699 88.9232 26.4668 89.198 28 88.7735" stroke="black" stroke-width="3" stroke-linecap="round"/>
<path d="M34.6826 124C34.6826 135.675 34.0306 147.535 34.7531 159.187C34.9906 163.016 36.7267 167.435 35.6522 171.173C35.3855 172.101 35.4883 173.332 35.3172 174.31C35.1311 175.373 34.6826 176.4 34.6826 177.481C34.6826 184.177 31.9189 191.236 29.923 197.563C27.0778 206.583 21.4062 214.669 16.3493 222.586C13.5416 226.982 11.5486 231.397 9.61537 236.22C8.60407 238.742 7.77512 241.382 6.30127 243.685C5.87756 244.346 5.73533 245.201 5.47275 245.963C4.76745 248.008 3.58704 249.851 2.95192 251.903C2.30201 254.003 2 256.822 2 259" stroke="black" stroke-width="3" stroke-linecap="round"/>
<path d="M35 182C35.8847 182.088 36.4312 182.965 36.9729 183.57C38.7692 185.575 40.162 187.619 41.4471 189.99C43.9953 194.69 45.9484 199.727 48.1585 204.591C50.2223 209.132 52.5993 213.7 53.6721 218.599C55.1254 225.236 55.0286 232.553 54.9756 239.323C54.924 245.914 53.3902 252.461 53.3902 259.07C53.3902 259.815 53.3902 260.559 53.3902 261.303C53.3902 261.639 53.7073 263.777 53.7073 262.699" stroke="black" stroke-width="3" stroke-linecap="round"/>
<path d="M34 127C31.5752 135.485 25.8433 142.698 23.4107 151.251C22.3664 154.923 23.2013 158.927 20.9821 162.09C19.8136 163.756 18.6934 165.649 17.9286 167.536C17.4087 168.819 16.9735 170.054 16.5714 171.343C16.4097 171.862 16.4365 172.785 16 173" stroke="black" stroke-width="3" stroke-linecap="round"/>
<path d="M35 127C35 130.844 35.5549 133.367 37.2826 136.871C38.8813 140.114 42.0748 142.929 43.3333 146.247C44.5784 149.53 46.0383 152.91 49.3478 154.526C51.8233 155.735 53.5634 154.44 55.5435 152.793C59.0494 149.876 62.9661 147.279 66.3043 144.195C69.0714 141.639 75.892 137.19 80 137.19" stroke="black" stroke-width="3" stroke-linecap="round"/>
<path d="M199.122 118.06C210.665 118.06 222.658 119.151 234.02 116.966C244.019 115.043 243.252 114.434 250.922 108.332C269.472 93.5766 291.28 83.2528 313.058 74.2851C335.387 65.0911 356.126 52.8935 377.626 41.9402C400.132 30.4752 412.638 9.09084 439.884 4.73146C487.454 -2.87979 528.178 8.96155 573.884 20.7823C595.561 26.3884 618.847 29.1586 639.06 39.2651C652.333 45.9012 660.138 57.0639 669.825 67.7188C680.317 79.2602 690.049 91.6758 702.048 101.766C708.852 107.487 716.349 115.218 720.044 123.532C722.224 128.437 726.611 129.038 726.611 135.57C726.611 142.136 726.611 148.703 726.611 155.269C726.611 177.378 708.734 198.024 691.104 209.988C672.254 222.779 648.187 236.666 625.442 241.117C601.811 245.74 576.779 246.11 553.821 253.763C538.398 258.903 522.624 265.876 506.763 269.084C454.114 279.732 391.973 278.219 346.254 247.196C331.961 237.498 323.103 222.62 308.559 213.271C295.174 204.666 288.181 194.574 278.889 182.628C270.615 171.99 258.859 162.816 250.436 151.986C243.837 143.502 236.581 140.805 228.548 134.233C219.373 126.726 204.273 125.4 196.933 118.06" stroke="black" stroke-width="3" stroke-linecap="round"/>
<path d="M90.2652 120.486C87.8533 120.486 85.4397 120.458 83.0279 120.486C81.506 120.503 80.3661 120.656 79.5627 121.995C78.2842 124.125 78.7285 127.932 78.7571 130.306C78.7867 132.762 79.5086 135.201 79.6906 137.658C79.8284 139.519 80.3683 141.315 80.3683 143.182C80.3683 144.508 80.0964 145.84 80.7774 146.954C81.5833 148.273 84.3914 147.875 85.6492 147.875C87.8022 147.875 89.5949 147.345 91.6462 146.775C92.8327 146.446 94.2457 145.559 95.2777 144.883C96.1618 144.304 96.2947 143.803 96.4796 142.786C97.3933 137.76 98.0908 132.385 98.0908 127.276C98.0908 125.821 98.2289 120.695 96.3773 120.204C94.2944 119.653 92.19 119.795 90.0351 119.795" stroke="black" stroke-width="3" stroke-linecap="round"/>
<path d="M90.4954 125.089C90.4954 125.992 90.4905 127.316 90.7383 128.183C90.8555 128.593 92.5736 126.958 92.797 126.93C93.7864 126.807 93.4875 125.78 93.0272 125.204C92.587 124.654 91.3756 124.859 90.7255 124.859" stroke="black" stroke-width="3" stroke-linecap="round"/>
<path d="M750.441 464.422C741.606 464.422 730.609 465.549 727.58 454.947C725.35 447.143 720.662 439.487 720.662 431.296C720.662 426.24 720.296 421.032 720.699 415.993C721.255 409.045 726.122 403.508 731.34 399.45C741.045 391.901 758.534 390.413 768.338 398.434C772.488 401.83 773.903 406.706 777.212 410.617C780.347 414.322 781.573 419.009 781.573 423.814C781.573 429.161 781.812 434.452 780.896 439.719C780.017 444.776 777.668 448.836 776.309 453.593C774.604 459.562 766.41 463.167 760.931 464.384C758.576 464.907 755.92 464.701 753.524 465.136C751.107 465.576 748.941 465.775 746.38 465.775" stroke="black" stroke-width="3" stroke-linecap="round"/>
<path d="M751.557 465.326C751.557 475.934 751.557 486.543 751.557 497.152C751.557 503.929 752.649 511.967 751.312 518.656C750.1 524.712 747.134 529.832 747.134 536.105C747.134 540.668 747.022 543.08 744.922 547.165C738.544 559.566 731.107 570.945 723.909 582.8C719.661 589.796 718.265 604.673 707.32 604.673" stroke="black" stroke-width="3" stroke-linecap="round"/>
<path d="M746.028 539.423C746.028 550.955 747.385 560.282 752.049 570.881C754.543 576.549 758.503 584.417 762.862 588.944C766.975 593.215 770.828 598.655 775.888 601.908C779.98 604.539 782.228 610.842 786.947 612.415" stroke="black" stroke-width="3" stroke-linecap="round"/>
<path d="M751.557 501.822C740.501 501.822 726.273 496.705 717.028 490.762C712.733 488.002 711.062 485.398 709.532 480.809" stroke="black" stroke-width="3" stroke-linecap="round"/>
<path d="M751.557 501.821C758.348 501.204 764.325 496.402 770.911 494.694C777.386 493.016 783.791 491.16 790.265 489.41C794.668 488.22 808.244 482.453 810.172 478.597" stroke="black" stroke-width="3" stroke-linecap="round"/>
<path d="M773.701 424.385C769.807 424.385 764.582 426.364 763.711 430.623C762.99 434.148 761.884 440.022 765.271 442.367C770.77 446.174 780.804 445.029 783.545 437.981C784.987 434.273 786.772 428.598 784.885 424.824C782.532 420.118 777.775 418.245 772.848 418.245C768.15 418.245 764.661 418.424 762.737 422.85C760.597 427.772 761.468 437.337 765.368 441.051C769.117 444.621 773.642 439.066 776.43 437.104C779.517 434.931 781.062 430.516 781.936 427.017C783.202 421.953 776.173 420.447 772.483 421.754C770.945 422.298 766.895 423.255 766.684 425.262C766.435 427.627 767.016 429.217 767.951 431.354C769.582 435.082 769.485 437.822 774.31 437.08C776.887 436.683 776.681 430.536 776.332 428.795C775.36 423.935 773.248 424.385 768.657 424.385C766.687 424.385 769.345 428.755 769.729 429.356C770.662 430.812 772.272 431.422 773.701 432.28" stroke="black" stroke-width="3" stroke-linecap="round"/>
<path d="M772.385 419.561C772.385 410.268 769.746 402.003 765.587 393.685C764.066 390.642 759.369 389.477 756.158 389.299C752.638 389.104 748.906 388.422 745.413 388.422C743.16 388.422 739.327 387.618 737.299 388.519C733.328 390.284 728.285 391.782 726.237 395.878C725.071 398.21 724.58 399.729 724.58 402.456C724.58 404.763 722.826 405.839 722.826 408.158" stroke="black" stroke-width="3" stroke-linecap="round"/>
<path d="M719.317 418.684C717.384 419.113 716.284 423.067 716.247 424.726C716.198 426.964 716.216 429.138 717.125 431.183C717.92 432.973 719.255 434.41 720.633 435.788C721.289 436.444 723.245 438.42 721.949 438.42C720.378 438.42 718.823 438.177 717.563 439.297C716.596 440.156 715.271 440.711 714.274 439.492C712.135 436.878 711.529 432.079 710.887 428.868C710.426 426.563 710.657 425.37 711.423 423.264C713.241 418.264 716.504 416.491 721.51 416.491C725.774 416.491 719.389 427.662 718.781 429.551C718.133 431.567 718.002 433.836 718.002 435.959C718.002 437.576 718.539 438.933 716.589 438.858C712.754 438.711 714.055 428.534 714.055 425.701" stroke="black" stroke-width="3" stroke-linecap="round"/>
<path d="M720.633 421.315C725.156 421.315 729.032 422.331 733.352 423.411C734.089 423.595 737.833 424.028 738.176 424.629C739.705 427.305 739.187 435.086 736.86 437.543C733.886 440.682 730.672 440.613 726.554 440.613C722.467 440.613 723.64 434.002 721.072 432.718" stroke="black" stroke-width="3" stroke-linecap="round"/>
<path d="M737.738 424.385C742.409 424.385 747.193 424.824 751.772 424.824C755.195 424.824 758.644 426.14 761.859 426.14" stroke="black" stroke-width="3" stroke-linecap="round"/>
<path d="M745.193 425.701C745.193 428.771 745.193 431.841 745.193 434.911C745.193 435.909 744.827 437.931 745.291 438.858C746.625 441.526 748.587 443.076 751.431 444.024C754.309 444.983 757.418 444.744 760.203 443.78C762.999 442.812 763.245 441.789 764.491 439.297" stroke="black" stroke-width="3" stroke-linecap="round"/>
<path d="M753.047 483.466C761.203 483.466 771.175 484.7 776.132 492.135C779.586 497.317 779.364 504.989 779.364 510.962C779.364 519.689 767.335 523.077 760.896 525.711C758.232 526.8 755.268 528.25 752.38 528.25C750.562 528.25 749.222 527.788 747.507 527.788" stroke="black" stroke-width="3" stroke-linecap="round"/>
<path d="M691.396 452.82C657.056 452.82 626.3 442.717 597.173 424.536C577.858 412.48 562.008 395.892 542.614 383.868C523.576 372.065 502.795 365.875 481.695 359.099C455.3 350.621 428.165 343.159 400.693 339.183C374.76 335.429 349.178 335.334 323.039 335.334C298.948 335.334 272.644 334.261 249.233 341.024C217.542 350.179 202.798 394.945 192.917 422.612C180.243 458.099 164.118 520.018 205.218 545.035C224.092 556.523 244.839 564.013 263.626 575.494C283.739 587.785 304.299 599.143 325.382 609.803C348.246 621.363 367.997 626.037 393.497 626.037C421.563 626.037 447.28 617.132 472.156 604.196C487.795 596.064 502.236 588.393 518.849 582.021C531.453 577.186 543.354 572.087 556.505 568.8C569.469 565.559 583.313 563.993 595.75 558.926C613.965 551.505 620.782 535.115 635.666 524.366C646.201 516.757 659.765 506.296 659.765 492.317C659.765 476.081 679.241 461.157 692.902 454.326" stroke="black" stroke-width="3" stroke-linecap="round"/>
<path d="M750.589 485.162C747.739 488.013 746.748 492.216 745.978 496.065C745.313 499.389 745.467 503.453 745.425 506.844C745.394 509.33 745.425 511.818 745.425 514.304" stroke="black" stroke-width="3" stroke-linecap="round"/>
<path d="M755.481 485.299C755.481 487.306 755.175 489.3 755.167 491.309C755.154 494.534 754.856 497.951 755.748 501.092C756.545 503.896 757.619 506.618 758.875 509.247C759.331 510.2 759.746 511.212 760.352 512.084C760.44 512.212 760.885 512.995 761.026 512.712" stroke="black" stroke-width="3" stroke-linecap="round"/>
</svg>
