<svg width="534" height="277" viewBox="0 0 534 277" fill="none" xmlns="http://www.w3.org/2000/svg">
<path d="M4.12161 118.06C15.6652 118.06 27.6584 119.151 39.02 116.966C49.0191 115.043 48.2519 114.434 55.922 108.332C74.4721 93.5766 96.2796 83.2528 118.058 74.2851C140.387 65.0911 161.126 52.8935 182.626 41.9402C205.132 30.4752 217.638 9.09084 244.884 4.73146C292.454 -2.87979 333.178 8.96155 378.884 20.7823C400.561 26.3884 423.847 29.1586 444.06 39.2651C457.333 45.9012 465.138 57.0639 474.825 67.7188C485.317 79.2602 495.049 91.6758 507.048 101.766C513.852 107.487 521.349 115.218 525.044 123.532C527.224 128.437 531.611 129.038 531.611 135.57C531.611 142.136 531.611 148.703 531.611 155.269C531.611 177.378 513.734 198.024 496.104 209.988C477.254 222.779 453.187 236.666 430.442 241.117C406.811 245.74 381.779 246.11 358.821 253.763C343.398 258.903 327.624 265.876 311.763 269.084C259.114 279.732 196.973 278.219 151.254 247.196C136.961 237.498 128.103 222.62 113.559 213.271C100.174 204.666 93.1806 194.574 83.8894 182.628C75.6153 171.99 63.8589 162.816 55.4357 151.986C48.8375 143.502 41.5814 140.805 33.5481 134.233C24.3734 126.726 9.27321 125.4 1.93286 118.06" stroke="black" stroke-width="3" stroke-linecap="round"/>
</svg>
