<svg width="181" height="202" viewBox="0 0 181 202" fill="none" xmlns="http://www.w3.org/2000/svg">
<path d="M124.068 2.68487C120.89 2.68487 117.522 2.35729 114.411 3.1034C110.427 4.05898 106.016 6.05408 102.683 8.52527C98.3759 11.7178 93.8795 16.9149 92.9306 22.3748C92.2598 26.2351 91.407 31.3908 92.5885 35.2161C93.7851 39.0906 95.6717 42.746 98.0822 46.0028C99.5911 48.0413 101.615 49.6448 103.12 51.6529C104.991 54.1504 106.728 55.5905 109.716 56.6373C113.737 58.0458 119.135 58.221 123.365 57.7977C130.025 57.1312 136.049 50.3906 139.466 45.0706C141.679 41.6261 141.177 37.7986 141.177 33.8464C141.177 32.0526 140.946 29.1308 141.69 27.4923C142.668 25.3403 141.113 21.8714 140.074 20.0729C138.644 17.595 137.733 14.6483 135.702 12.6155C134.321 11.2334 132.252 10.3904 131.083 8.82966C130.212 7.66796 129.247 6.43731 128.326 5.25312C126.357 2.71884 122.726 2 119.62 2" stroke="black" stroke-width="3" stroke-linecap="round"/>
<path d="M139.303 32.2237C136.568 32.5309 134.472 34.1437 131.738 32.5644C131.041 32.1619 130.262 30.6923 129.865 29.9898C128.868 28.2262 129.078 29.8891 127.674 30.5198C124.279 32.0451 112 39.5856 112 30.8606C112 28.3294 112.98 26.1763 113.33 23.7045C113.583 21.9123 114.488 22.0007 116.064 22.0007C119.203 22.0007 122.343 22.0007 125.483 22.0007C129.134 22.0007 132.619 22.6822 136.27 22.6822C138.633 22.6822 141.113 22.3785 142 25.0676" stroke="black" stroke-width="3" stroke-linecap="round"/>
<path d="M139.97 25.4099C139.97 26.7584 140.288 31.5721 138.846 31.9498C138.288 32.0958 137.793 23.4452 138.4 22.3024C138.63 21.8671 138.58 21.2073 138.031 21.0432C136.786 20.6706 136.368 22.8075 136.131 23.6632C135.625 25.488 135.814 30.2816 134.211 31.6249C133.081 32.5717 131.976 24.8541 131.942 23.582C131.933 23.2316 132.154 21.735 131.865 21.4697C131.581 21.2095 131.593 22.4347 131.593 22.4852C131.593 23.5328 131.332 24.5318 131.264 25.5724C131.196 26.6005 131.596 28.2367 131.225 29.2079C131.161 29.3758 128.646 27.0759 128.452 26.8722C127.721 26.1066 126.602 25.2729 126.086 24.3131C125.912 23.9891 125.676 26.0967 125.64 26.5067C125.562 27.4132 125.53 28.7174 125.291 29.5938C125.235 29.8009 123.592 25.2474 123.41 24.5366C123.093 23.2976 122.518 20.6693 122.518 23.3992C122.518 25.1727 122.557 26.8742 122.247 28.6189C122.029 29.8477 121.977 29.7741 121.122 30.5281C119.05 32.3562 118.353 27.5739 118.175 26.4254C117.834 24.234 117.81 24.4111 118.155 26.3645C118.488 28.2473 118.679 30.4352 118.679 32.356C118.679 35.8089 117.283 28.8905 117.283 27.8065C117.283 26.7321 117.301 25.5504 116.914 24.5366C116.557 23.6004 116.046 26.336 115.615 27.2378C114.494 29.586 112.047 32.7695 112.047 35.4635C112.047 38.1089 111 30.2488 111 27.6034" stroke="black" stroke-width="3" stroke-linecap="round"/>
<path d="M113.809 21.661C110.844 21.661 107.879 21.661 104.914 21.661C103.636 21.661 102.36 21.0693 101.123 21.0034C99.9282 20.9397 99.874 21.7765 100.114 22.8118C100.301 23.6191 100.2 25.0644 100.609 25.7711C102.163 28.4526 106.225 25.9599 108.495 25.6249C109.683 25.4496 110.689 24.9044 111.752 24.3645C112.493 23.9883 114.648 22.9762 113.809 22.9762" stroke="black" stroke-width="3" stroke-linecap="round"/>
<path d="M105.187 24.1779C104.164 24.1779 101.396 23.7776 102.119 24.1779C103.003 24.6672 105.618 24.6706 106.781 24.7735C108.47 24.9232 110.467 25.198 112 24.7735" stroke="black" stroke-width="3" stroke-linecap="round"/>
<path d="M118.683 60C118.683 71.675 118.031 83.5349 118.753 95.1869C118.991 99.0159 120.727 103.435 119.652 107.173C119.385 108.101 119.488 109.332 119.317 110.31C119.131 111.373 118.683 112.4 118.683 113.481C118.683 120.177 115.919 127.236 113.923 133.563C111.078 142.583 105.406 150.669 100.349 158.586C97.5416 162.982 95.5486 167.397 93.6154 172.22C92.6041 174.742 91.7751 177.382 90.3013 179.685C89.8776 180.346 89.7353 181.201 89.4727 181.963C88.7675 184.008 87.587 185.851 86.9519 187.903C86.302 190.003 86 192.822 86 195" stroke="black" stroke-width="3" stroke-linecap="round"/>
<path d="M119 118C119.885 118.088 120.431 118.965 120.973 119.57C122.769 121.575 124.162 123.619 125.447 125.99C127.995 130.69 129.948 135.727 132.159 140.591C134.222 145.132 136.599 149.7 137.672 154.599C139.125 161.236 139.029 168.553 138.976 175.323C138.924 181.914 137.39 188.461 137.39 195.07C137.39 195.815 137.39 196.559 137.39 197.303C137.39 197.639 137.707 199.777 137.707 198.699" stroke="black" stroke-width="3" stroke-linecap="round"/>
<path d="M118 63C115.575 71.4851 109.843 78.698 107.411 87.2513C106.366 90.9231 107.201 94.9267 104.982 98.0904C103.814 99.7563 102.693 101.649 101.929 103.536C101.409 104.819 100.973 106.054 100.571 107.343C100.41 107.862 100.437 108.785 100 109" stroke="black" stroke-width="3" stroke-linecap="round"/>
<path d="M119 63C119 66.8445 119.555 69.3672 121.283 72.8712C122.881 76.1135 126.075 78.9288 127.333 82.2471C128.578 85.5298 130.038 88.9103 133.348 90.5262C135.823 91.7348 137.563 90.4396 139.543 88.7925C143.049 85.8761 146.966 83.2786 150.304 80.195C153.071 77.639 159.892 73.1896 164 73.1896" stroke="black" stroke-width="3" stroke-linecap="round"/>
<path d="M164.054 58.1682C164.054 63.4485 163.731 68.8843 164.24 74.1429C164.355 75.336 164.702 76.547 164.933 77.7254C165.324 79.7209 165.46 81.7888 165.46 83.8206C165.46 84.1548 165.262 85.5414 165.548 85.7783C166.071 86.2108 167.085 85.9184 167.657 85.6774C169.203 85.0263 170.45 83.7745 172.051 83.4068C173.98 82.9637 173.72 80.2173 173.72 78.6538C173.72 75.8092 173.7 72.9841 173.896 70.1467C174.09 67.3342 174.561 64.5433 174.853 61.7406C174.982 60.5056 175.188 59.1234 174.638 57.9866C174.202 57.0856 172.367 57.1865 171.572 57.1187C168.744 56.8776 165.842 57.0784 163 57.0784" stroke="black" stroke-width="3" stroke-linecap="round"/>
<path d="M163.714 56.0252C163.562 54.4908 162.9 53.14 163.013 51.5369C163.117 50.0608 163.831 48.4377 164.425 47.0886C165.215 45.2923 167.928 43.8402 169.757 43.3783C171.987 42.8153 174.915 42.6921 176.68 44.3557C177.95 45.5536 178.737 47.0045 178.961 48.7243C179.244 50.9065 177.919 52.3677 177.401 54.3296C177.127 55.3666 176.811 56.2415 176.018 56.9627C175.594 57.3484 174.939 58 174.379 58" stroke="black" stroke-width="3" stroke-linecap="round"/>
<path d="M167 89C168.798 89 170.677 88.001 172.192 87.0929C172.63 86.8306 174.534 85.3531 175 86.3301" stroke="black" stroke-width="3" stroke-linecap="round"/>
<path d="M40.0682 3.68487C36.8899 3.68487 33.5221 3.35729 30.4114 4.1034C26.4274 5.05898 22.0161 7.05408 18.6825 9.52527C14.3759 12.7178 9.87946 17.9149 8.93064 23.3748C8.25979 27.2351 7.40701 32.3908 8.58847 36.2161C9.78511 40.0906 11.6717 43.746 14.0822 47.0028C15.5911 49.0413 17.6148 50.6448 19.1197 52.6529C20.9914 55.1504 22.7277 56.5905 25.716 57.6373C29.7373 59.0458 35.1354 59.221 39.3649 58.7977C46.025 58.1312 52.0486 51.3906 55.466 46.0706C57.6786 42.6261 57.1768 38.7986 57.1768 34.8464C57.1768 33.0526 56.9459 30.1308 57.6901 28.4923C58.6675 26.3403 57.1126 22.8714 56.0743 21.0729C54.6437 18.595 53.7334 15.6483 51.7021 13.6155C50.3211 12.2334 48.2524 11.3904 47.0828 9.82966C46.2122 8.66796 45.2467 7.43731 44.3264 6.25312C42.3568 3.71884 38.7256 3 35.62 3" stroke="black" stroke-width="3" stroke-linecap="round"/>
<path d="M55.3034 33.2237C52.5683 33.5309 50.4716 35.1437 47.7378 33.5644C47.0411 33.1619 46.2623 31.6923 45.8652 30.9898C44.8683 29.2262 45.078 30.8891 43.6742 31.5198C40.2793 33.0451 28 40.5856 28 31.8606C28 29.3294 28.9803 27.1763 29.3296 24.7045C29.5829 22.9123 30.488 23.0007 32.0637 23.0007C35.2035 23.0007 38.3433 23.0007 41.4831 23.0007C45.1342 23.0007 48.6186 23.6822 52.2697 23.6822C54.6333 23.6822 57.1133 23.3785 58 26.0676" stroke="black" stroke-width="3" stroke-linecap="round"/>
<path d="M55.9703 26.4099C55.9703 27.7584 56.2881 32.5721 54.8456 32.9498C54.288 33.0958 53.7935 24.4452 54.3996 23.3024C54.6305 22.8671 54.5797 22.2073 54.0312 22.0432C52.7863 21.6706 52.368 23.8075 52.1308 24.6632C51.625 26.488 51.8142 31.2816 50.2111 32.6249C49.0812 33.5717 47.9761 25.8541 47.9424 24.582C47.9331 24.2316 48.1543 22.735 47.8648 22.4697C47.5809 22.2095 47.5933 23.4347 47.5933 23.4852C47.5933 24.5328 47.3322 25.5318 47.2637 26.5724C47.196 27.6005 47.5958 29.2367 47.2249 30.2079C47.1608 30.3758 44.6464 28.0759 44.452 27.8722C43.721 27.1066 42.6017 26.2729 42.0863 25.3131C41.9122 24.9891 41.6758 27.0967 41.6403 27.5067C41.5616 28.4132 41.5303 29.7174 41.2912 30.5938C41.2347 30.8009 39.5924 26.2474 39.4103 25.5366C39.0929 24.2976 38.5183 21.6693 38.5183 24.3992C38.5183 26.1727 38.5567 27.8742 38.2468 29.6189C38.0286 30.8477 37.977 30.7741 37.1221 31.5281C35.0495 33.3562 34.3532 28.5739 34.1747 27.4254C33.8341 25.234 33.8099 25.4111 34.1553 27.3645C34.4882 29.2473 34.6789 31.4352 34.6789 33.356C34.6789 36.8089 33.2827 29.8905 33.2827 28.8065C33.2827 27.7321 33.3015 26.5504 32.9143 25.5366C32.5568 24.6004 32.0456 27.336 31.6151 28.2378C30.4941 30.586 28.0471 33.7695 28.0471 36.4635C28.0471 39.1089 27 31.2488 27 28.6034" stroke="black" stroke-width="3" stroke-linecap="round"/>
<path d="M29.8093 22.661C26.8442 22.661 23.8791 22.661 20.9139 22.661C19.6358 22.661 18.36 22.0693 17.1234 22.0034C15.9282 21.9397 15.874 22.7765 16.1139 23.8118C16.3009 24.6191 16.1997 26.0644 16.6091 26.7711C18.1625 29.4526 22.2245 26.9599 24.495 26.6249C25.6833 26.4496 26.6888 25.9044 27.7522 25.3645C28.4932 24.9883 30.6478 23.9762 29.8093 23.9762" stroke="black" stroke-width="3" stroke-linecap="round"/>
<path d="M21.1869 25.1779C20.1642 25.1779 17.3958 24.7776 18.1189 25.1779C19.0026 25.6672 21.6182 25.6706 22.7806 25.7735C24.4699 25.9232 26.4668 26.198 28 25.7735" stroke="black" stroke-width="3" stroke-linecap="round"/>
<path d="M34.6826 61C34.6826 72.675 34.0306 84.5349 34.7531 96.1869C34.9906 100.016 36.7267 104.435 35.6522 108.173C35.3855 109.101 35.4883 110.332 35.3172 111.31C35.1311 112.373 34.6826 113.4 34.6826 114.481C34.6826 121.177 31.9189 128.236 29.923 134.563C27.0778 143.583 21.4062 151.669 16.3493 159.586C13.5416 163.982 11.5486 168.397 9.61537 173.22C8.60407 175.742 7.77512 178.382 6.30127 180.685C5.87756 181.346 5.73533 182.201 5.47275 182.963C4.76745 185.008 3.58704 186.851 2.95192 188.903C2.30201 191.003 2 193.822 2 196" stroke="black" stroke-width="3" stroke-linecap="round"/>
<path d="M35 119C35.8847 119.088 36.4312 119.965 36.9729 120.57C38.7692 122.575 40.162 124.619 41.4471 126.99C43.9953 131.69 45.9484 136.727 48.1585 141.591C50.2223 146.132 52.5993 150.7 53.6721 155.599C55.1254 162.236 55.0286 169.553 54.9756 176.323C54.924 182.914 53.3902 189.461 53.3902 196.07C53.3902 196.815 53.3902 197.559 53.3902 198.303C53.3902 198.639 53.7073 200.777 53.7073 199.699" stroke="black" stroke-width="3" stroke-linecap="round"/>
<path d="M34 64C31.5752 72.4851 25.8433 79.698 23.4107 88.2513C22.3664 91.9231 23.2013 95.9267 20.9821 99.0904C19.8136 100.756 18.6934 102.649 17.9286 104.536C17.4087 105.819 16.9735 107.054 16.5714 108.343C16.4097 108.862 16.4365 109.785 16 110" stroke="black" stroke-width="3" stroke-linecap="round"/>
<path d="M35 64C35 67.8445 35.5549 70.3672 37.2826 73.8712C38.8813 77.1135 42.0748 79.9288 43.3333 83.2471C44.5784 86.5298 46.0383 89.9103 49.3478 91.5262C51.8233 92.7348 53.5634 91.4396 55.5435 89.7925C59.0494 86.8761 62.9661 84.2786 66.3043 81.195C69.0714 78.639 75.892 74.1896 80 74.1896" stroke="black" stroke-width="3" stroke-linecap="round"/>
<path d="M90.2652 57.4858C87.8533 57.4858 85.4397 57.4577 83.0279 57.4858C81.506 57.5035 80.3661 57.6557 79.5627 58.9946C78.2842 61.1254 78.7285 64.9316 78.7571 67.306C78.7867 69.762 79.5086 72.2012 79.6906 74.6584C79.8284 76.5193 80.3683 78.3146 80.3683 80.1823C80.3683 81.5081 80.0964 82.84 80.7774 83.9544C81.5833 85.2731 84.3914 84.8751 85.6492 84.8751C87.8022 84.8751 89.5949 84.3452 91.6462 83.7754C92.8327 83.4458 94.2457 82.5591 95.2777 81.8829C96.1618 81.3037 96.2947 80.803 96.4796 79.7859C97.3933 74.7604 98.0908 69.3853 98.0908 64.2755C98.0908 62.8212 98.2289 57.6946 96.3773 57.2044C94.2944 56.6531 92.19 56.7953 90.0351 56.7953" stroke="black" stroke-width="3" stroke-linecap="round"/>
<path d="M90.4954 62.0891C90.4954 62.9922 90.4905 64.316 90.7383 65.1835C90.8555 65.5934 92.5736 63.9583 92.797 63.9304C93.7864 63.8067 93.4875 62.7796 93.0272 62.2041C92.587 61.6539 91.3756 61.8589 90.7255 61.8589" stroke="black" stroke-width="3" stroke-linecap="round"/>
</svg>
