<svg width="107" height="228" viewBox="0 0 107 228" fill="none" xmlns="http://www.w3.org/2000/svg">
<path d="M45.4407 78.4218C36.6055 78.4218 25.6094 79.5495 22.5801 68.9466C20.3503 61.1426 15.6617 53.487 15.6617 45.2964C15.6617 40.2398 15.2963 35.0315 15.6993 29.9934C16.2552 23.0451 21.1224 17.5077 26.34 13.4495C36.0453 5.90095 53.5342 4.41292 63.3381 12.4343C67.488 15.8297 68.9029 20.7063 72.2116 24.6166C75.3472 28.3223 76.5732 33.009 76.5732 37.8141C76.5732 43.1611 76.8124 48.4516 75.8964 53.7188C75.0169 58.7757 72.6684 62.836 71.3092 67.5931C69.6039 73.5617 61.4098 77.1666 55.931 78.3842C53.5761 78.9075 50.9198 78.7005 48.5238 79.1362C46.1073 79.5755 43.9409 79.7753 41.3799 79.7753" stroke="black" stroke-width="3" stroke-linecap="round"/>
<path d="M46.5573 79.3257C46.5573 89.9344 46.5573 100.543 46.5573 111.152C46.5573 117.929 47.6494 125.967 46.3115 132.656C45.1004 138.712 42.1336 143.832 42.1336 150.105C42.1336 154.668 42.0225 157.08 39.9217 161.165C33.5439 173.566 26.1069 184.945 18.909 196.8C14.6612 203.796 13.2646 218.673 2.32007 218.673" stroke="black" stroke-width="3" stroke-linecap="round"/>
<path d="M41.0276 153.423C41.0276 164.955 42.3852 174.282 47.0488 184.881C49.5427 190.549 53.5031 198.417 57.8623 202.944C61.9753 207.215 65.8279 212.655 70.8877 215.908C74.9801 218.539 77.2281 224.842 81.947 226.415" stroke="black" stroke-width="3" stroke-linecap="round"/>
<path d="M46.5572 115.822C35.5013 115.822 21.2726 110.705 12.0276 104.762C7.73346 102.002 6.06152 99.3978 4.53186 94.8088" stroke="black" stroke-width="3" stroke-linecap="round"/>
<path d="M46.5573 115.821C53.3482 115.204 59.3248 110.402 65.911 108.694C72.3861 107.016 78.791 105.16 85.2648 103.41C89.668 102.22 103.244 96.4527 105.172 92.5969" stroke="black" stroke-width="3" stroke-linecap="round"/>
<path d="M68.701 38.3852C64.8074 38.3852 59.5822 40.3642 58.7112 44.6227C57.9902 48.1476 56.8842 54.0225 60.2706 56.3669C65.7695 60.1738 75.8036 59.0294 78.5446 51.9811C79.9867 48.2727 81.7716 42.5976 79.8847 38.8238C77.5318 34.118 72.7752 32.2451 67.8482 32.2451C63.1503 32.2451 59.6612 32.4236 57.7366 36.8502C55.5965 41.7723 56.4677 51.3365 60.368 55.0511C64.1165 58.6211 68.6421 53.0658 71.4299 51.1039C74.5173 48.9313 76.0616 44.516 76.9365 41.0167C78.2025 35.9527 71.1728 34.4468 67.4827 35.7537C65.9448 36.2984 61.8951 37.2549 61.6838 39.2623C61.4348 41.6273 62.016 43.217 62.9508 45.3537C64.5821 49.0824 64.4852 51.8219 69.3101 51.0796C71.8869 50.6831 71.6807 44.5364 71.3324 42.7953C70.3604 37.9353 68.2483 38.3852 63.6574 38.3852C61.6874 38.3852 64.3449 42.7549 64.7294 43.3557C65.6616 44.8122 67.2721 45.4223 68.701 46.2796" stroke="black" stroke-width="3" stroke-linecap="round"/>
<path d="M67.3851 33.5609C67.3851 24.2679 64.7463 16.0031 60.5872 7.68485C59.0658 4.64199 54.3689 3.47747 51.1578 3.29908C47.6377 3.10352 43.9057 2.42192 40.4126 2.42192C38.1595 2.42192 34.3273 1.6179 32.299 2.51938C28.3279 4.28432 23.285 5.7819 21.2371 9.87773C20.0711 12.2097 19.5802 13.7289 19.5802 16.4564C19.5802 18.7632 17.8259 19.8395 17.8259 22.1579" stroke="black" stroke-width="3" stroke-linecap="round"/>
<path d="M14.3175 32.6836C12.3842 33.1132 11.2843 37.0673 11.2474 38.7262C11.1977 40.9641 11.2155 43.1377 12.1246 45.1831C12.9202 46.9732 14.2548 48.4097 15.6332 49.7881C16.2893 50.4442 18.2448 52.4196 16.9489 52.4196C15.3778 52.4196 13.8233 52.1766 12.5632 53.2967C11.5961 54.1564 10.2714 54.7109 9.27384 53.4916C7.13528 50.8778 6.5292 46.079 5.88706 42.8683C5.42599 40.563 5.65747 39.3698 6.42309 37.2643C8.24149 32.2637 11.5042 30.4907 16.5104 30.4907C20.7741 30.4907 14.3886 41.6616 13.7814 43.5506C13.1332 45.5672 13.0017 47.8364 13.0017 49.9587C13.0017 51.5765 13.5394 52.9332 11.5886 52.8581C7.75358 52.7106 9.05456 42.5342 9.05456 39.7008" stroke="black" stroke-width="3" stroke-linecap="round"/>
<path d="M15.6331 35.3152C20.1557 35.3152 24.0317 36.3306 28.3518 37.4106C29.0885 37.5948 32.8327 38.0279 33.1761 38.6289C34.7052 41.3048 34.1874 49.0863 31.8604 51.5425C28.8863 54.6819 25.6722 54.6126 21.5538 54.6126C17.4666 54.6126 18.64 48.0024 16.0716 46.7182" stroke="black" stroke-width="3" stroke-linecap="round"/>
<path d="M32.7375 38.3853C37.4093 38.3853 42.1931 38.8238 46.772 38.8238C50.1953 38.8238 53.6437 40.1396 56.8593 40.1396" stroke="black" stroke-width="3" stroke-linecap="round"/>
<path d="M40.1934 39.7009C40.1934 42.771 40.1934 45.841 40.1934 48.911C40.1934 49.9092 39.827 51.9305 40.2909 52.8582C41.6249 55.5263 43.5873 57.0758 46.431 58.0237C49.3085 58.9829 52.4177 58.744 55.2025 57.78C57.9987 56.8121 58.2445 55.7894 59.4908 53.2968" stroke="black" stroke-width="3" stroke-linecap="round"/>
<path d="M48.047 97.4658C56.2035 97.4658 66.175 98.7003 71.1317 106.135C74.5859 111.317 74.3636 118.989 74.3636 124.962C74.3636 133.689 62.3349 137.077 55.8958 139.711C53.2324 140.8 50.2679 142.25 47.3801 142.25C45.5619 142.25 44.2222 141.788 42.5067 141.788" stroke="black" stroke-width="3" stroke-linecap="round"/>
<path d="M45.5893 99.1624C42.7391 102.013 41.7481 106.216 40.9784 110.065C40.3134 113.389 40.4675 117.453 40.4251 120.844C40.394 123.33 40.4251 125.818 40.4251 128.304" stroke="black" stroke-width="3" stroke-linecap="round"/>
<path d="M50.4807 99.2988C50.4807 101.306 50.1748 103.3 50.1668 105.309C50.1538 108.534 49.8558 111.951 50.7481 115.092C51.5447 117.896 52.6192 120.618 53.8753 123.247C54.3307 124.2 54.7463 125.212 55.3518 126.084C55.4404 126.212 55.8846 126.995 56.026 126.712" stroke="black" stroke-width="3" stroke-linecap="round"/>
</svg>
